<?xml version="1.0" encoding="utf-8"?>
<!-- Generator: Adobe Illustrator 26.0.2, SVG Export Plug-In . SVG Version: 6.00 Build 0)  -->
<svg version="1.1" id="Layer_1" xmlns="http://www.wv.org/2000/svg" xmlns:xlink="http://www.wv.org/1999/xlink" x="0px" y="0px"
	 viewBox="0 0 1543.78 714.6" style="enable-background:new 0 0 1543.78 714.6;" xml:space="preserve">
<style type="text/css">
	.st0{fill:#E3101B;}
	.st1{opacity:0.9;}
	.st2{opacity:0.52;fill:#EEEEEE;}
	.st3{fill:#F3F7FF;}
	.st4{fill:#1D5AF6;}
	.st5{fill:#EEEEEE;}
	.st6{fill:#FF0004;}
	.st7{fill:#677961;}
	.st8{fill:#FF8E00;}
	.st9{fill:#1D5AF6;stroke:#FFFFFF;stroke-width:2;stroke-miterlimit:10;}
	.st10{fill:#FF8E00;stroke:#FFFFFF;stroke-width:2;stroke-miterlimit:10;}
	.st11{fill:#677961;stroke:#FFFFFF;stroke-width:2;stroke-miterlimit:10;}
	.st12{fill:#FF0004;stroke:#FFFFFF;stroke-width:2;stroke-miterlimit:10;}
	.st13{fill:#0F53EA;}
	.st14{fill:#1D5AF6;stroke:#1D5AF6;stroke-width:0.5;stroke-miterlimit:10;}
	.st15{fill:#FF8500;}
	.st16{fill:#FFFFFF;}
	.st17{fill:#424242;}
</style>
<g>
	<g>
		<path class="st0" d="M685.14,641.7v-8.61h3.23c0.66,0,1.18,0.09,1.58,0.26c0.4,0.17,0.71,0.44,0.93,0.8
			c0.23,0.36,0.34,0.74,0.34,1.14c0,0.37-0.1,0.71-0.3,1.04c-0.2,0.33-0.5,0.59-0.9,0.79c0.52,0.15,0.92,0.41,1.2,0.78
			c0.28,0.37,0.42,0.8,0.42,1.3c0,0.4-0.09,0.78-0.26,1.12c-0.17,0.35-0.38,0.61-0.63,0.8c-0.25,0.19-0.56,0.33-0.94,0.43
			c-0.38,0.1-0.84,0.14-1.39,0.14H685.14z M686.28,636.71h1.86c0.5,0,0.87-0.03,1.09-0.1c0.29-0.09,0.51-0.23,0.65-0.43
			c0.15-0.2,0.22-0.45,0.22-0.75c0-0.29-0.07-0.54-0.21-0.75c-0.14-0.22-0.33-0.37-0.59-0.45c-0.25-0.08-0.69-0.12-1.31-0.12h-1.72
			V636.71z M686.28,640.68h2.14c0.37,0,0.63-0.01,0.77-0.04c0.26-0.05,0.48-0.13,0.66-0.23c0.18-0.11,0.32-0.27,0.43-0.48
			c0.11-0.21,0.17-0.45,0.17-0.73c0-0.32-0.08-0.6-0.25-0.84c-0.16-0.24-0.39-0.4-0.68-0.5c-0.29-0.1-0.71-0.14-1.26-0.14h-1.99
			V640.68z"/>
		<path class="st0" d="M701.89,639.69l1.09,0.14c-0.17,0.64-0.49,1.13-0.96,1.49c-0.47,0.35-1.06,0.53-1.78,0.53
			c-0.91,0-1.63-0.28-2.17-0.84s-0.8-1.35-0.8-2.36c0-1.05,0.27-1.86,0.81-2.44c0.54-0.58,1.24-0.87,2.1-0.87
			c0.83,0,1.51,0.28,2.04,0.85c0.53,0.57,0.79,1.37,0.79,2.4c0,0.06,0,0.16-0.01,0.28h-4.65c0.04,0.68,0.23,1.21,0.58,1.57
			c0.35,0.36,0.78,0.55,1.3,0.55c0.39,0,0.72-0.1,0.99-0.3C701.52,640.46,701.73,640.14,701.89,639.69z M698.43,637.98h3.48
			c-0.05-0.52-0.18-0.92-0.4-1.18c-0.34-0.41-0.77-0.61-1.31-0.61c-0.49,0-0.89,0.16-1.22,0.49
			C698.64,637,698.46,637.44,698.43,637.98z"/>
		<path class="st0" d="M719.07,640.75l0.15,0.93c-0.3,0.06-0.56,0.09-0.8,0.09c-0.38,0-0.68-0.06-0.89-0.18
			c-0.21-0.12-0.36-0.28-0.45-0.48c-0.09-0.2-0.13-0.61-0.13-1.25v-3.59h-0.77v-0.82h0.77v-1.54l1.05-0.63v2.18h1.06v0.82h-1.06
			v3.65c0,0.3,0.02,0.5,0.06,0.58c0.04,0.09,0.1,0.15,0.18,0.21c0.08,0.05,0.2,0.08,0.36,0.08
			C718.73,640.79,718.88,640.78,719.07,640.75z"/>
		<path class="st0" d="M724.66,641.7v-8.61h1.06v3.09c0.49-0.57,1.12-0.86,1.87-0.86c0.46,0,0.86,0.09,1.2,0.27
			c0.34,0.18,0.58,0.43,0.73,0.75c0.15,0.32,0.22,0.79,0.22,1.4v3.95h-1.06v-3.95c0-0.53-0.11-0.91-0.34-1.15
			c-0.23-0.24-0.55-0.36-0.97-0.36c-0.31,0-0.61,0.08-0.88,0.24c-0.28,0.16-0.47,0.38-0.59,0.66c-0.12,0.28-0.18,0.66-0.18,1.15
			v3.41H724.66z"/>
		<path class="st0" d="M740.18,639.69l1.09,0.14c-0.17,0.64-0.49,1.13-0.96,1.49c-0.47,0.35-1.06,0.53-1.78,0.53
			c-0.91,0-1.64-0.28-2.17-0.84c-0.53-0.56-0.8-1.35-0.8-2.36c0-1.05,0.27-1.86,0.81-2.44c0.54-0.58,1.24-0.87,2.1-0.87
			c0.83,0,1.51,0.28,2.04,0.85c0.53,0.57,0.79,1.37,0.79,2.4c0,0.06,0,0.16-0.01,0.28h-4.65c0.04,0.68,0.23,1.21,0.58,1.57
			c0.35,0.36,0.78,0.55,1.3,0.55c0.39,0,0.72-0.1,0.99-0.3C739.8,640.46,740.01,640.14,740.18,639.69z M736.71,637.98h3.48
			c-0.05-0.52-0.18-0.92-0.4-1.18c-0.34-0.41-0.77-0.61-1.31-0.61c-0.49,0-0.89,0.16-1.22,0.49
			C736.92,637,736.74,637.44,736.71,637.98z"/>
		<path class="st0" d="M756.02,641.7h-0.98v-8.61h1.06v3.07c0.45-0.56,1.02-0.84,1.71-0.84c0.38,0,0.75,0.08,1.09,0.23
			c0.34,0.15,0.62,0.37,0.85,0.65c0.22,0.28,0.39,0.62,0.52,1.01c0.13,0.4,0.19,0.82,0.19,1.27c0,1.07-0.26,1.89-0.79,2.48
			c-0.53,0.58-1.16,0.87-1.9,0.87c-0.74,0-1.31-0.31-1.73-0.92V641.7z M756.01,638.53c0,0.75,0.1,1.29,0.31,1.62
			c0.33,0.54,0.78,0.82,1.35,0.82c0.46,0,0.86-0.2,1.2-0.6c0.34-0.4,0.5-1,0.5-1.79c0-0.81-0.16-1.42-0.48-1.8
			c-0.32-0.39-0.71-0.58-1.17-0.58c-0.46,0-0.86,0.2-1.2,0.6C756.18,637.19,756.01,637.77,756.01,638.53z"/>
		<path class="st0" d="M770.56,639.69l1.09,0.14c-0.17,0.64-0.49,1.13-0.96,1.49c-0.47,0.35-1.06,0.53-1.78,0.53
			c-0.91,0-1.64-0.28-2.17-0.84c-0.53-0.56-0.8-1.35-0.8-2.36c0-1.05,0.27-1.86,0.81-2.44c0.54-0.58,1.24-0.87,2.1-0.87
			c0.83,0,1.51,0.28,2.04,0.85c0.53,0.57,0.79,1.37,0.79,2.4c0,0.06,0,0.16-0.01,0.28h-4.65c0.04,0.68,0.23,1.21,0.58,1.57
			c0.35,0.36,0.78,0.55,1.3,0.55c0.39,0,0.72-0.1,0.99-0.3C770.18,640.46,770.4,640.14,770.56,639.69z M767.09,637.98h3.48
			c-0.05-0.52-0.18-0.92-0.4-1.18c-0.34-0.41-0.77-0.61-1.31-0.61c-0.49,0-0.89,0.16-1.22,0.49
			C767.31,637,767.12,637.44,767.09,637.98z"/>
		<path class="st0" d="M777.54,641.7v-6.23h0.95v0.89c0.46-0.68,1.12-1.03,1.98-1.03c0.38,0,0.72,0.07,1.04,0.2
			c0.32,0.14,0.55,0.31,0.71,0.53c0.16,0.22,0.27,0.48,0.33,0.78c0.04,0.2,0.06,0.54,0.06,1.03v3.83h-1.06v-3.79
			c0-0.43-0.04-0.75-0.12-0.97c-0.08-0.21-0.23-0.38-0.44-0.51c-0.21-0.13-0.46-0.19-0.74-0.19c-0.45,0-0.84,0.14-1.17,0.43
			c-0.33,0.29-0.49,0.83-0.49,1.63v3.4H777.54z"/>
		<path class="st0" d="M792.85,639.41l1.04,0.14c-0.11,0.72-0.4,1.28-0.87,1.68c-0.47,0.4-1.04,0.61-1.72,0.61
			c-0.85,0-1.54-0.28-2.06-0.84c-0.52-0.56-0.78-1.36-0.78-2.4c0-0.67,0.11-1.26,0.33-1.77s0.56-0.88,1.02-1.14
			c0.46-0.25,0.95-0.38,1.49-0.38c0.68,0,1.23,0.17,1.66,0.51c0.43,0.34,0.71,0.83,0.83,1.46l-1.03,0.16
			c-0.1-0.42-0.27-0.73-0.52-0.94c-0.25-0.21-0.55-0.32-0.9-0.32c-0.53,0-0.96,0.19-1.3,0.57c-0.33,0.38-0.5,0.99-0.5,1.81
			c0,0.84,0.16,1.45,0.48,1.83c0.32,0.38,0.74,0.57,1.26,0.57c0.41,0,0.76-0.13,1.04-0.38C792.6,640.33,792.77,639.94,792.85,639.41
			z"/>
		<path class="st0" d="M799.35,641.7v-8.61h1.06v3.09c0.49-0.57,1.12-0.86,1.87-0.86c0.46,0,0.86,0.09,1.2,0.27
			c0.34,0.18,0.58,0.43,0.73,0.75c0.15,0.32,0.22,0.79,0.22,1.4v3.95h-1.06v-3.95c0-0.53-0.11-0.91-0.34-1.15
			c-0.23-0.24-0.55-0.36-0.97-0.36c-0.31,0-0.61,0.08-0.88,0.24c-0.28,0.16-0.47,0.38-0.59,0.66c-0.12,0.28-0.18,0.66-0.18,1.15
			v3.41H799.35z"/>
		<path class="st0" d="M810.59,641.7v-6.23h0.94v0.87c0.2-0.31,0.46-0.55,0.78-0.74c0.33-0.19,0.69-0.28,1.11-0.28
			c0.46,0,0.84,0.1,1.14,0.29c0.3,0.19,0.5,0.46,0.63,0.8c0.49-0.73,1.13-1.09,1.93-1.09c0.62,0,1.09,0.17,1.43,0.51
			c0.33,0.34,0.5,0.87,0.5,1.58v4.28h-1.05v-3.93c0-0.42-0.03-0.73-0.1-0.91c-0.07-0.19-0.19-0.34-0.37-0.45
			c-0.18-0.11-0.39-0.17-0.63-0.17c-0.44,0-0.8,0.15-1.09,0.44c-0.29,0.29-0.43,0.76-0.43,1.4v3.62h-1.06v-4.05
			c0-0.47-0.09-0.82-0.26-1.06c-0.17-0.23-0.45-0.35-0.85-0.35c-0.3,0-0.57,0.08-0.82,0.23c-0.25,0.16-0.44,0.39-0.55,0.69
			c-0.11,0.3-0.17,0.74-0.17,1.3v3.23H810.59z"/>
		<path class="st0" d="M829.23,640.93c-0.39,0.33-0.77,0.57-1.13,0.7c-0.36,0.14-0.75,0.21-1.17,0.21c-0.68,0-1.21-0.17-1.58-0.5
			s-0.55-0.76-0.55-1.28c0-0.31,0.07-0.58,0.21-0.84c0.14-0.25,0.32-0.46,0.55-0.61c0.23-0.15,0.48-0.27,0.76-0.35
			c0.21-0.05,0.52-0.11,0.94-0.16c0.85-0.1,1.48-0.22,1.88-0.36c0-0.14,0.01-0.24,0.01-0.28c0-0.43-0.1-0.73-0.3-0.91
			c-0.27-0.24-0.67-0.36-1.2-0.36c-0.5,0-0.86,0.09-1.1,0.26c-0.24,0.17-0.41,0.48-0.53,0.92l-1.03-0.14
			c0.09-0.44,0.25-0.8,0.46-1.07c0.22-0.27,0.53-0.48,0.93-0.63c0.41-0.15,0.88-0.22,1.41-0.22c0.53,0,0.96,0.06,1.3,0.19
			c0.33,0.13,0.58,0.28,0.73,0.47c0.16,0.19,0.27,0.43,0.33,0.72c0.04,0.18,0.05,0.5,0.05,0.97v1.41c0,0.98,0.02,1.6,0.07,1.86
			c0.05,0.26,0.13,0.51,0.27,0.75h-1.1C829.33,641.48,829.26,641.22,829.23,640.93z M829.14,638.57c-0.38,0.16-0.96,0.29-1.73,0.4
			c-0.43,0.06-0.74,0.13-0.92,0.21c-0.18,0.08-0.32,0.19-0.42,0.34c-0.1,0.15-0.15,0.32-0.15,0.5c0,0.28,0.11,0.52,0.32,0.7
			c0.21,0.19,0.53,0.28,0.94,0.28c0.41,0,0.77-0.09,1.09-0.27s0.55-0.42,0.7-0.73c0.11-0.24,0.17-0.59,0.17-1.06V638.57z"/>
		<path class="st0" d="M836.39,641.7v-6.23h0.95v0.95c0.24-0.44,0.47-0.73,0.67-0.87s0.43-0.21,0.68-0.21
			c0.36,0,0.72,0.11,1.09,0.34l-0.36,0.98c-0.26-0.15-0.52-0.23-0.77-0.23c-0.23,0-0.44,0.07-0.62,0.21
			c-0.18,0.14-0.31,0.33-0.39,0.58c-0.12,0.38-0.18,0.79-0.18,1.23v3.26H836.39z"/>
		<path class="st0" d="M844.97,641.7v-8.61h1.06V638l2.5-2.54h1.37l-2.38,2.31l2.62,3.92h-1.3l-2.06-3.19l-0.75,0.72v2.47H844.97z"
			/>
	</g>
	<g>
		<path class="st0" d="M704.06,557.85c-0.48,3.3-0.94,6.59-1.43,9.89c-1.02,6.9-2.06,13.8-3.09,20.69
			c-1.1,7.33-2.2,14.66-3.29,21.99c-0.35,2.34-0.7,4.68-1.05,7.06c-3.34,0-6.64,0-10.04,0c0.28-1.88,0.56-3.74,0.83-5.6
			c1.03-6.93,2.06-13.86,3.1-20.79c1.02-6.84,2.04-13.68,3.06-20.51c0.6-4,1.2-8.01,1.81-12.01c0.04-0.24,0.11-0.48,0.17-0.72
			C697.43,557.85,700.74,557.85,704.06,557.85z"/>
		<path class="st0" d="M804.07,557.85c-0.73,4.9-1.45,9.8-2.18,14.7c-0.96,6.47-1.94,12.94-2.9,19.41
			c-0.91,6.07-1.82,12.14-2.72,18.21c-0.36,2.43-0.73,4.85-1.1,7.32c-2.85,0-5.65,0-8.56,0c0.22-1.55,0.43-3.05,0.66-4.55
			c1.17-7.82,2.34-15.65,3.51-23.47c1.09-7.3,2.2-14.6,3.29-21.9c0.48-3.23,0.92-6.47,1.38-9.71
			C798.31,557.85,801.19,557.85,804.07,557.85z"/>
		<path class="st0" d="M708.86,617.48c-2.81,0-5.55,0-8.4,0c2.41-16.2,4.8-32.34,7.21-48.53c2.8,0,5.57,0,8.45,0
			c-0.07,0.67-0.14,1.33-0.23,2.16c0.62-0.43,1.13-0.8,1.65-1.15c1.61-1.1,3.35-1.63,5.32-1.26c1.58,0.29,2.66,1.3,3.66,2.61
			c0.27-0.21,0.53-0.41,0.78-0.61c1.29-1.03,2.69-1.8,4.35-2.03c3.77-0.52,6.38,1.6,6.3,5.39c-0.06,2.51-0.44,5.02-0.8,7.52
			c-0.99,6.84-2.05,13.68-3.09,20.51c-0.77,5.11-1.54,10.22-2.32,15.38c-2.77,0-5.51,0-8.39,0c0.16-1.18,0.3-2.34,0.47-3.49
			c1.74-11.71,3.49-23.41,5.24-35.12c0.07-0.46,0.16-0.92,0.24-1.38c0.12-0.73-0.06-1.31-0.84-1.55c-0.74-0.23-1.6,0.12-1.85,0.87
			c-0.27,0.85-0.44,1.75-0.57,2.64c-1.79,11.89-3.56,23.78-5.34,35.68c-0.12,0.77-0.25,1.54-0.39,2.36c-2.77,0-5.53,0-8.43,0
			c0.23-1.64,0.45-3.23,0.69-4.82c1.29-8.66,2.6-17.31,3.89-25.97c0.46-3.05,0.89-6.1,1.36-9.15c0.11-0.72,0.03-1.32-0.75-1.6
			c-0.71-0.25-1.58,0.07-1.91,0.78c-0.22,0.47-0.36,1-0.44,1.51c-1.9,12.73-3.78,25.46-5.67,38.18
			C709.01,616.75,708.93,617.09,708.86,617.48z"/>
		<path class="st0" d="M745.75,615.58c-0.65,4.32-1.29,8.48-1.91,12.63c-0.06,0.41-0.1,0.71-0.64,0.71
			c-2.62-0.02-5.24-0.01-8.04-0.01c2.99-20.03,5.96-39.97,8.95-59.94c2.86,0,5.66,0,8.55,0c-0.07,0.6-0.13,1.16-0.2,1.82
			c0.9-0.53,1.66-1.15,2.52-1.44c1.13-0.38,2.36-0.78,3.52-0.69c3.3,0.24,4.98,2.47,4.66,6.27c-0.27,3.22-0.76,6.43-1.23,9.63
			c-1.07,7.27-2.14,14.54-3.32,21.8c-0.39,2.38-0.95,4.77-1.74,7.05c-1.81,5.21-7.73,5.45-10.57,2.56
			C746.17,615.85,746.01,615.76,745.75,615.58z M754.42,576.96c0.08-0.87-0.39-1.16-0.99-1.22c-0.69-0.07-1.24,0.23-1.56,0.92
			c-0.26,0.55-0.44,1.17-0.53,1.77c-1.13,7.32-2.23,14.64-3.34,21.97c-0.42,2.8-0.83,5.6-1.24,8.41c-0.17,1.15,0.37,1.78,1.4,1.65
			c0.98-0.12,1.36-0.84,1.51-1.67c0.29-1.59,0.52-3.19,0.76-4.79c0.92-6.16,1.83-12.31,2.74-18.47
			C753.56,582.77,753.96,580.03,754.42,576.96z"/>
		<path class="st0" d="M777.34,568.9c-0.59,3.95-1.16,7.74-1.73,11.52c-0.97,6.5-1.94,13-2.91,19.5c-0.44,2.96-0.88,5.92-1.31,8.87
			c-0.1,0.7-0.16,1.42,0.75,1.66c0.89,0.24,1.74-0.15,1.96-1.11c0.38-1.63,0.63-3.3,0.88-4.96c1.24-8.32,2.47-16.64,3.7-24.96
			c0.47-3.17,0.93-6.35,1.39-9.52c0.05-0.31,0.12-0.61,0.18-0.96c2.85,0,5.68,0,8.65,0c-2.43,16.19-4.84,32.32-7.27,48.51
			c-2.84,0-5.66,0-8.57,0c0.05-0.58,0.1-1.13,0.16-1.78c-0.67,0.41-1.27,0.78-1.88,1.14c-1.64,0.94-3.39,1.23-5.24,0.76
			c-1.99-0.51-3.18-1.97-3.51-4.15c-0.36-2.36,0.14-4.66,0.48-6.96c1.07-7.3,2.19-14.6,3.29-21.9c0.76-5.02,1.5-10.04,2.28-15.06
			c0.03-0.22,0.34-0.58,0.52-0.58C771.85,568.89,774.54,568.9,777.34,568.9z"/>
		<path class="st0" d="M847.14,594.66c-3.82,0-7.62,0-11.5,0c-0.34,2.29-0.68,4.49-1,6.7c-0.35,2.37-0.7,4.74-1.04,7.12
			c-0.06,0.4-0.09,0.81-0.08,1.21c0.01,0.67,0.19,1.25,1,1.35c0.77,0.09,1.44-0.14,1.63-0.93c0.33-1.36,0.56-2.74,0.78-4.12
			c0.34-2.11,0.63-4.24,0.95-6.39c2.89,0,5.69,0,8.63,0c-0.21,1.34-0.38,2.62-0.6,3.9c-0.49,2.79-0.85,5.61-1.53,8.35
			c-0.95,3.82-2.79,5.38-6.69,5.66c-2.66,0.2-5.37,0.21-8.03,0c-3.31-0.26-5.42-1.51-4.97-6.28c0.41-4.37,1.19-8.7,1.83-13.04
			c0.96-6.47,1.9-12.94,2.94-19.4c0.32-1.98,0.85-3.95,1.47-5.86c0.66-2,2.15-3.23,4.24-3.71c3.71-0.85,7.44-0.92,11.15-0.11
			c2.56,0.56,3.86,2.16,3.68,4.76c-0.23,3.25-0.68,6.49-1.11,9.73c-0.45,3.39-0.99,6.78-1.5,10.17
			C847.31,594.04,847.23,594.31,847.14,594.66z M836.67,587.94c0.93,0,1.71,0.03,2.48-0.02c0.2-0.01,0.51-0.29,0.53-0.48
			c0.54-3.54,1.05-7.09,1.54-10.63c0.09-0.66-0.18-1.2-0.87-1.34c-0.68-0.14-1.33-0.03-1.69,0.66c-0.14,0.27-0.23,0.58-0.28,0.88
			c-0.23,1.35-0.46,2.7-0.67,4.05C837.36,583.3,837.03,585.54,836.67,587.94z"/>
		<path class="st0" d="M802.27,599.7c2.82,0,5.63,0,8.51,0c-0.34,2.36-0.67,4.67-1.01,6.97c-0.13,0.89-0.29,1.78-0.42,2.68
			c-0.12,0.76,0.12,1.38,0.88,1.65c0.72,0.26,1.6-0.11,1.8-0.92c0.37-1.47,0.61-2.98,0.85-4.49c0.32-1.97,0.56-3.95,0.89-5.91
			c0.2-1.18-0.12-2.12-1.1-2.76c-1.28-0.84-2.6-1.6-3.91-2.4c-0.08-0.05-0.16-0.1-0.24-0.14c-4.23-2.47-4.93-3.81-4.23-8.6
			c0.5-3.39,0.97-6.79,1.7-10.13c1.09-4.97,3.24-6.71,8.33-6.91c2.39-0.09,4.81-0.08,7.19,0.19c3.24,0.36,4.65,2.13,4.45,5.43
			c-0.13,2.23-0.51,4.45-0.8,6.68c-0.15,1.17-0.3,2.35-0.52,3.51c-0.04,0.24-0.38,0.6-0.59,0.6c-2.65,0.04-5.3,0.03-8.08,0.03
			c0.25-1.8,0.49-3.51,0.74-5.23c0.14-0.99,0.31-1.97,0.46-2.95c0.11-0.77-0.08-1.38-0.91-1.6c-0.81-0.21-1.49,0.07-1.73,0.86
			c-0.32,1-0.51,2.05-0.69,3.09c-0.28,1.69-0.46,3.4-0.77,5.08c-0.29,1.53,0.28,2.61,1.54,3.4c1.5,0.95,2.97,1.98,4.53,2.82
			c2.89,1.57,4.06,3.87,3.51,7.12c-0.68,4.05-1.24,8.13-1.92,12.18c-0.19,1.13-0.61,2.22-0.96,3.31c-0.77,2.43-2.51,3.68-4.97,4.1
			c-3.23,0.55-6.47,0.59-9.71,0.14c-3.33-0.46-4.8-2.18-4.49-5.58c0.36-3.94,1-7.85,1.52-11.77
			C802.14,600.01,802.22,599.87,802.27,599.7z"/>
	</g>
</g>
<g class="st1">
	<path class="st2" d="M345.66,223.88H224.4c-14.37,0-26.02-11.65-26.02-26.02V76.59c0-14.37,11.65-26.02,26.02-26.02h121.26
		c14.37,0,26.02,11.65,26.02,26.02v121.26C371.68,212.23,360.03,223.88,345.66,223.88z"/>
	<path class="st2" d="M259.01,421.74H31.75c-14.37,0-26.02-11.65-26.02-26.02V168.46c0-14.37,11.65-26.02,26.02-26.02h227.26
		c14.37,0,26.02,11.65,26.02,26.02v227.26C285.03,410.09,273.38,421.74,259.01,421.74z"/>
	<path class="st2" d="M202.59,528.51h-87.67c-14.37,0-26.02-11.65-26.02-26.02v-87.67c0-14.37,11.65-26.02,26.02-26.02h87.67
		c14.37,0,26.02,11.65,26.02,26.02v87.67C228.61,516.86,216.96,528.51,202.59,528.51z"/>
	<path class="st2" d="M1272.97,295.33h-91.98c-9.11,0-16.49-7.38-16.49-16.49v-91.98c0-9.11,7.38-16.49,16.49-16.49h91.98
		c9.11,0,16.49,7.38,16.49,16.49v91.98C1289.46,287.95,1282.07,295.33,1272.97,295.33z"/>
	<path class="st2" d="M1512.03,530.16h-154.36c-14.37,0-26.02-11.65-26.02-26.02V349.78c0-14.37,11.65-26.02,26.02-26.02h154.36
		c14.37,0,26.02,11.65,26.02,26.02v154.36C1538.05,518.51,1526.4,530.16,1512.03,530.16z"/>
	<path class="st2" d="M1430.53,707.39h-197.75c-14.37,0-26.02-11.65-26.02-26.02V483.62c0-14.37,11.65-26.02,26.02-26.02h197.75
		c14.37,0,26.02,11.65,26.02,26.02v197.75C1456.55,695.74,1444.9,707.39,1430.53,707.39z"/>
</g>
<g>
	<g>
		<path class="st3" d="M1102.96,207.75c-43.39-72.82-110.34-132.23-195-165.48l-65.55,176.98c-9.63,25.99-1.96,55.3,19.32,73.06
			c0.52,0.43,1.03,0.86,1.54,1.3c21.22,18.18,51.42,21.43,75.7,7.59L1102.96,207.75z"/>
		<path class="st4" d="M848.39,203.13l-5.97,16.12c-9.63,25.99-1.96,55.3,19.32,73.06c0.52,0.43,1.03,0.86,1.54,1.3
			c21.22,18.18,51.42,21.43,75.7,7.59l14.95-8.52C929.86,253.67,893.72,221.73,848.39,203.13z"/>
		<path class="st5" d="M892.51,37.36C812.47,9.46,722.99,6.99,636.77,35.94l63.55,177.71c9.33,26.1,34.05,43.62,61.76,43.55
			c0.67,0,1.34,0,2.01,0.01c27.94,0.29,53.16-16.64,62.87-42.85L892.51,37.36z"/>
		<path class="st6" d="M694.53,197.46l5.79,16.19c9.33,26.1,34.05,43.62,61.76,43.55c0.67,0,1.34,0,2.01,0.01
			c27.94,0.29,53.16-16.64,62.87-42.85l5.98-16.13C789.43,183.8,741.21,182.57,694.53,197.46z"/>
		<path class="st3" d="M621.78,42.1c-79.25,30.08-149.38,85.71-196.83,163.3l162.91,95.28c23.92,13.99,54.12,11.54,75.3-6.34
			c0.51-0.43,1.03-0.86,1.55-1.29c21.59-17.74,30.03-46.92,20.62-73.23L621.78,42.1z"/>
		<path class="st7" d="M573.02,292.01l14.84,8.68c23.92,13.99,54.12,11.54,75.3-6.34c0.51-0.43,1.03-0.86,1.55-1.29
			c21.59-17.74,30.03-46.92,20.62-73.23l-5.79-16.2C636.94,220.55,599.21,250.59,573.02,292.01z"/>
		<path class="st5" d="M417.43,219.77c-41.37,73.98-59.34,161.67-45.81,251.62l186.05-31.73c27.32-4.66,48.87-25.95,53.61-53.26
			c0.11-0.66,0.23-1.32,0.36-1.98c5.14-27.47-7.16-55.25-31.28-69.36L417.43,219.77z"/>
		<path class="st8" d="M540.72,442.55l16.95-2.89c27.32-4.66,48.88-25.95,53.61-53.26c0.11-0.66,0.23-1.32,0.36-1.98
			c5.14-27.47-7.16-55.25-31.28-69.36l-14.85-8.69C543.74,346.72,534.16,393.98,540.72,442.55z"/>
		<path class="st3" d="M375.09,487.22c15.87,83.27,58.47,161.99,126.64,222.2l122.13-143.89c17.93-21.13,20.76-51.3,6.83-75.26
			c-0.34-0.58-0.67-1.16-1-1.75c-13.72-24.34-40.99-37.72-68.54-33.02L375.09,487.22z"/>
		<path class="st4" d="M612.74,578.63l11.12-13.11c17.93-21.13,20.76-51.3,6.83-75.26c-0.34-0.58-0.67-1.16-1-1.75
			c-13.72-24.34-40.99-37.72-68.54-33.02l-16.96,2.89C553.45,503.27,576.5,545.64,612.74,578.63z"/>
		<path class="st3" d="M1023.39,710.39c64.18-55.37,111.05-131.63,129.11-220.77L966.82,455.8c-27.27-4.97-54.8,7.67-68.59,31.71
			c-0.33,0.58-0.67,1.16-1.01,1.74c-14.22,24.05-12.17,54.36,5.67,75.87L1023.39,710.39z"/>
		<path class="st7" d="M983.73,458.88l-16.91-3.08c-27.27-4.97-54.8,7.67-68.59,31.71c-0.33,0.58-0.67,1.16-1.01,1.74
			c-14.22,24.05-12.17,54.36,5.67,75.87l10.99,13.24C948.11,547.89,973.29,506.75,983.73,458.88z"/>
		<path class="st5" d="M1154.65,473.55c13.57-83.67,0.46-172.22-43.01-252.11l-163.97,93.44c-24.08,13.72-37.05,41.1-32.16,68.38
			c0.12,0.66,0.23,1.32,0.34,1.98c4.57,27.57,25.62,49.47,53.11,54.48L1154.65,473.55z"/>
		<path class="st8" d="M962.6,306.37l-14.94,8.51c-24.08,13.72-37.05,41.1-32.16,68.38c0.12,0.66,0.23,1.32,0.34,1.98
			c4.57,27.57,25.62,49.47,53.11,54.48l16.93,3.08C992.53,397.46,985.37,349.76,962.6,306.37z"/>
	</g>
	<g>
		<circle class="st9" cx="385.53" cy="527.66" r="25.31"/>
		<g>
			<g>
				<path class="st16" d="M380.52,517.01c5.51,0,6.95,4.38,6.95,10.11c0,5.82-1.44,10.22-6.95,10.22c-5.54,0-6.98-4.4-6.98-10.22
					C373.54,521.38,374.98,517.01,380.52,517.01z M380.52,519.31c-3.96,0-4.49,3.66-4.49,7.81c0,4.32,0.53,7.92,4.49,7.92
					c3.93,0,4.46-3.6,4.46-7.92C384.98,522.96,384.45,519.31,380.52,519.31z"/>
				<path class="st16" d="M392.93,519.61h-2.66v-2.3h5.21v20.02h-2.55V519.61z"/>
			</g>
		</g>
	</g>
	<g>
		<circle class="st10" cx="404.44" cy="257.2" r="25.31"/>
		<g>
			<g>
				<path class="st16" d="M395.89,246.55c5.51,0,6.95,4.38,6.95,10.11c0,5.82-1.44,10.22-6.95,10.22c-5.54,0-6.98-4.4-6.98-10.22
					C388.92,250.93,390.36,246.55,395.89,246.55z M395.89,248.85c-3.96,0-4.49,3.66-4.49,7.81c0,4.32,0.53,7.92,4.49,7.92
					c3.93,0,4.46-3.6,4.46-7.92C400.35,252.51,399.83,248.85,395.89,248.85z"/>
				<path class="st16" d="M406.01,264.86c5.26-4.24,10.25-8.23,10.25-12.32c0-2.22-0.97-3.88-3.68-3.88c-2.6,0-3.93,1.8-4.04,4.32
					h-2.44c0.17-4.26,2.85-6.48,6.45-6.48c3.77,0,6.2,2.22,6.2,5.93c0,4.98-5.37,9.22-8.95,12.13h9.53v2.1h-13.32V264.86z"/>
			</g>
		</g>
	</g>
	<g>
		<circle class="st11" cx="582.94" cy="58.83" r="25.31"/>
		<g>
			<g>
				<path class="st16" d="M574.2,48.18c5.51,0,6.95,4.38,6.95,10.11c0,5.82-1.44,10.22-6.95,10.22c-5.54,0-6.98-4.4-6.98-10.22
					C567.22,52.55,568.66,48.18,574.2,48.18z M574.2,50.48c-3.96,0-4.49,3.66-4.49,7.81c0,4.32,0.53,7.92,4.49,7.92
					c3.93,0,4.46-3.6,4.46-7.92C578.66,54.13,578.13,50.48,574.2,50.48z"/>
				<path class="st16" d="M591.12,48.09c3.9,0,6.04,2.27,6.04,5.15c0,2.3-1.44,4.1-3.54,4.57v0.14c2.33,0.55,3.91,2.27,3.91,5.15
					c0,3.1-2.16,5.54-6.34,5.54c-3.79,0-6.62-2.02-6.92-5.9h2.44c0.25,2.13,1.8,3.77,4.46,3.77c2.69,0,3.96-1.58,3.96-3.63
					c0-2.82-1.97-3.9-5.57-3.9h-0.64v-2.1h0.67c3.35-0.03,5.15-1.05,5.15-3.38c0-1.91-1.27-3.24-3.68-3.24
					c-2.35,0-3.77,1.33-4.02,3.27h-2.46C584.81,50.09,587.41,48.09,591.12,48.09z"/>
			</g>
		</g>
	</g>
	<g>
		<circle class="st11" cx="1051.76" cy="677.6" r="25.31"/>
		<g>
			<g>
				<path class="st16" d="M1043.61,666.95c5.51,0,6.95,4.38,6.95,10.11c0,5.82-1.44,10.22-6.95,10.22c-5.54,0-6.98-4.4-6.98-10.22
					C1036.63,671.33,1038.07,666.95,1043.61,666.95z M1043.61,669.25c-3.96,0-4.49,3.66-4.49,7.81c0,4.32,0.53,7.92,4.49,7.92
					c3.93,0,4.46-3.6,4.46-7.92C1048.07,672.9,1047.55,669.25,1043.61,669.25z"/>
				<path class="st16" d="M1066.35,667.31v1.91l-7.7,18.06h-2.55l7.81-17.81h-10.69v-2.16H1066.35z"/>
			</g>
		</g>
	</g>
	<g>
		<circle class="st10" cx="1152.79" cy="433.98" r="25.31"/>
		<g>
			<g>
				<path class="st16" d="M1143.41,423.33c5.51,0,6.95,4.38,6.95,10.11c0,5.82-1.44,10.22-6.95,10.22c-5.54,0-6.98-4.4-6.98-10.22
					C1136.43,427.71,1137.87,423.33,1143.41,423.33z M1143.41,425.63c-3.96,0-4.49,3.66-4.49,7.81c0,4.32,0.53,7.92,4.49,7.92
					c3.93,0,4.46-3.6,4.46-7.92C1147.87,429.29,1147.34,425.63,1143.41,425.63z"/>
				<path class="st16" d="M1164.99,428.4c-0.39-1.94-1.52-3.07-3.79-3.07c-3.18,0-4.9,2.19-4.87,8.14c0.86-1.97,3.05-3.07,5.43-3.07
					c3.74,0,6.26,2.46,6.26,6.67c0,3.66-2.16,6.65-6.54,6.65c-5.93,0-7.34-4.26-7.34-10.33c0-6.29,2.02-10.16,7.09-10.16
					c3.82,0,5.76,2.38,6.09,5.18H1164.99z M1156.62,436.87c0,2.66,1.55,4.74,4.71,4.74c2.6,0,4.24-1.74,4.24-4.46
					c0-2.82-1.47-4.62-4.35-4.62C1158.92,432.53,1156.62,433.88,1156.62,436.87z"/>
			</g>
		</g>
	</g>
	<g>
		<circle class="st9" cx="1077.36" cy="178.32" r="25.31"/>
		<g>
			<g>
				<path class="st16" d="M1068.08,167.67c5.51,0,6.95,4.38,6.95,10.11c0,5.82-1.44,10.22-6.95,10.22c-5.54,0-6.98-4.4-6.98-10.22
					C1061.1,172.04,1062.54,167.67,1068.08,167.67z M1068.08,169.96c-3.96,0-4.49,3.66-4.49,7.81c0,4.32,0.53,7.92,4.49,7.92
					c3.93,0,4.46-3.6,4.46-7.92C1072.54,173.62,1072.01,169.96,1068.08,169.96z"/>
				<path class="st16" d="M1091.26,167.94v2.22h-9.72v6.31c0.83-1.14,2.6-2.02,4.57-2.02c4.87,0,6.42,3.52,6.42,6.62
					c0,3.88-2.16,6.98-6.84,6.98c-3.99,0-6.4-2.24-6.9-5.48h2.46c0.47,2.1,2.11,3.35,4.46,3.35c3.05,0,4.4-2.05,4.4-4.79
					c0-2.85-1.47-4.51-4.38-4.51c-2.02,0-3.49,1.05-4.15,2.63h-2.38v-11.3H1091.26z"/>
			</g>
		</g>
	</g>
	<g>
		<circle class="st12" cx="853.7" cy="29.52" r="25.31"/>
		<g>
			<g>
				<path class="st16" d="M844.41,18.87c5.51,0,6.95,4.38,6.95,10.11c0,5.82-1.44,10.22-6.95,10.22c-5.54,0-6.98-4.4-6.98-10.22
					C837.43,23.24,838.87,18.87,844.41,18.87z M844.41,21.17c-3.96,0-4.49,3.66-4.49,7.81c0,4.32,0.53,7.92,4.49,7.92
					c3.93,0,4.46-3.6,4.46-7.92C848.86,24.82,848.34,21.17,844.41,21.17z"/>
				<path class="st16" d="M864.46,34.74h-10.25v-1.91l9.72-13.46h3.02v13.18h2.77v2.19h-2.77v4.46h-2.49V34.74z M864.57,32.55V22
					l-7.45,10.55H864.57z"/>
			</g>
		</g>
	</g>
	<g>
		<path class="st13" d="M433.75,587.21h-5.1v-11.82h4.88c2.47,0,3.84,1.29,3.84,3.05c0,1.44-0.86,2.34-2.02,2.71
			c1.34,0.24,2.29,1.47,2.29,2.86C437.65,585.88,436.21,587.21,433.75,587.21z M433.19,577.3h-2.17v2.96h2.17
			c1.12,0,1.76-0.51,1.76-1.47C434.95,577.84,434.31,577.3,433.19,577.3z M433.36,582.09h-2.34v3.18h2.39
			c1.15,0,1.83-0.56,1.83-1.56C435.24,582.7,434.51,582.09,433.36,582.09z"/>
		<path class="st13" d="M443.64,587.36c-2.73,0-4.71-1.9-4.71-4.84c0-2.96,1.93-4.84,4.71-4.84c2.71,0,4.62,1.85,4.62,4.64
			c0,0.31-0.02,0.61-0.07,0.91h-6.86c0.12,1.39,1.07,2.17,2.25,2.17c1.02,0,1.58-0.51,1.88-1.13h2.56
			C447.52,585.99,445.96,587.36,443.64,587.36z M441.36,581.63h4.45c-0.03-1.24-1.02-2.02-2.24-2.02
			C442.44,579.62,441.54,580.35,441.36,581.63z"/>
		<path class="st13" d="M453.59,587.36c-2.35,0-4-1.37-4.1-3.12h2.39c0.08,0.71,0.75,1.25,1.69,1.25c0.93,0,1.44-0.42,1.44-0.97
			c0-1.68-5.3-0.61-5.3-4.05c0-1.56,1.39-2.81,3.71-2.81c2.27,0,3.64,1.24,3.78,3.1h-2.27c-0.07-0.73-0.64-1.22-1.58-1.22
			c-0.88,0-1.34,0.36-1.34,0.9c0,1.71,5.2,0.64,5.27,4.08C457.28,586.14,455.87,587.36,453.59,587.36z"/>
		<path class="st13" d="M464.7,577.67c2.41,0,4.29,1.88,4.29,4.81s-1.88,4.88-4.29,4.88c-1.47,0-2.52-0.73-3.1-1.49v5.81h-2.37
			v-13.85h2.37v1.35C462.16,578.38,463.24,577.67,464.7,577.67z M464.07,579.75c-1.27,0-2.47,0.98-2.47,2.76
			c0,1.78,1.2,2.76,2.47,2.76c1.29,0,2.49-1.02,2.49-2.79S465.36,579.75,464.07,579.75z"/>
		<path class="st13" d="M474.88,587.36c-2.71,0-4.76-1.9-4.76-4.84c0-2.96,2.12-4.84,4.83-4.84s4.83,1.88,4.83,4.84
			C479.77,585.46,477.6,587.36,474.88,587.36z M474.88,585.29c1.25,0,2.46-0.91,2.46-2.78c0-1.88-1.17-2.78-2.42-2.78
			s-2.39,0.9-2.39,2.78C472.52,584.38,473.61,585.29,474.88,585.29z"/>
		<path class="st13" d="M481.52,574.67h2.37v7.13l3.15-3.98h3.08l-4.13,4.71l4.17,4.67h-3.08l-3.18-4v4h-2.37V574.67z"/>
		<path class="st13" d="M495.51,587.36c-2.73,0-4.71-1.9-4.71-4.84c0-2.96,1.93-4.84,4.71-4.84c2.71,0,4.62,1.85,4.62,4.64
			c0,0.31-0.02,0.61-0.07,0.91h-6.86c0.12,1.39,1.07,2.17,2.25,2.17c1.02,0,1.58-0.51,1.88-1.13h2.56
			C499.39,585.99,497.83,587.36,495.51,587.36z M493.22,581.63h4.46c-0.03-1.24-1.02-2.02-2.24-2.02
			C494.31,579.62,493.41,580.35,493.22,581.63z"/>
		<path class="st13" d="M516.26,581.31c0,3.57-2.46,5.89-6.23,5.89h-4.13v-11.82h4.13C513.8,575.38,516.26,577.72,516.26,581.31z
			 M509.94,585.19c2.49,0,3.9-1.42,3.9-3.88c0-2.46-1.41-3.93-3.9-3.93h-1.68v7.81H509.94z"/>
		<path class="st13" d="M522.14,587.36c-2.73,0-4.71-1.9-4.71-4.84c0-2.96,1.93-4.84,4.71-4.84c2.71,0,4.62,1.85,4.62,4.64
			c0,0.31-0.02,0.61-0.07,0.91h-6.86c0.12,1.39,1.07,2.17,2.25,2.17c1.02,0,1.58-0.51,1.88-1.13h2.56
			C526.02,585.99,524.46,587.36,522.14,587.36z M519.85,581.63h4.46c-0.03-1.24-1.02-2.02-2.24-2.02
			C520.93,579.62,520.04,580.35,519.85,581.63z"/>
		<path class="st13" d="M532.08,587.36c-2.35,0-4-1.37-4.1-3.12h2.39c0.08,0.71,0.75,1.25,1.69,1.25c0.93,0,1.44-0.42,1.44-0.97
			c0-1.68-5.3-0.61-5.3-4.05c0-1.56,1.39-2.81,3.71-2.81c2.27,0,3.64,1.24,3.78,3.1h-2.27c-0.07-0.73-0.64-1.22-1.58-1.22
			c-0.88,0-1.34,0.36-1.34,0.9c0,1.71,5.2,0.64,5.27,4.08C535.77,586.14,534.37,587.36,532.08,587.36z"/>
		<path class="st13" d="M537.47,575.32c0-0.78,0.61-1.39,1.46-1.39c0.83,0,1.46,0.61,1.46,1.39c0,0.78-0.63,1.39-1.46,1.39
			C538.08,576.7,537.47,576.09,537.47,575.32z M537.72,577.82h2.37v9.38h-2.37V577.82z"/>
		<path class="st13" d="M546.1,577.67c1.47,0,2.54,0.68,3.1,1.49v-1.34h2.39v9.45c0,2.54-1.56,4.56-4.64,4.56
			c-2.64,0-4.49-1.32-4.72-3.47h2.35c0.24,0.85,1.12,1.41,2.3,1.41c1.3,0,2.32-0.75,2.32-2.49v-1.46c-0.56,0.81-1.63,1.54-3.1,1.54
			c-2.39,0-4.29-1.95-4.29-4.88S543.72,577.67,546.1,577.67z M546.71,579.75c-1.27,0-2.47,0.95-2.47,2.73s1.2,2.79,2.47,2.79
			c1.3,0,2.49-0.98,2.49-2.76C549.2,580.74,548.02,579.75,546.71,579.75z"/>
		<path class="st13" d="M560.48,582.02c0-1.51-0.83-2.32-2.08-2.32c-1.29,0-2.12,0.81-2.12,2.32v5.18h-2.37v-9.38h2.37v1.17
			c0.61-0.8,1.63-1.3,2.83-1.3c2.19,0,3.74,1.42,3.74,4.01v5.5h-2.37V582.02z"/>
		<path class="st13" d="M469.41,607.65c-2.46,0-4.35-1.29-4.39-3.52h2.54c0.07,0.95,0.69,1.58,1.8,1.58c1.12,0,1.78-0.59,1.78-1.44
			c0-2.56-6.1-1.02-6.08-5.3c0-2.13,1.73-3.42,4.17-3.42c2.42,0,4.08,1.24,4.23,3.37h-2.61c-0.05-0.78-0.68-1.39-1.69-1.41
			c-0.93-0.03-1.63,0.42-1.63,1.39c0,2.37,6.06,1.05,6.06,5.22C473.59,605.97,472.1,607.65,469.41,607.65z"/>
		<path class="st13" d="M479.74,607.68c-2.73,0-4.71-1.9-4.71-4.84c0-2.96,1.93-4.84,4.71-4.84c2.71,0,4.62,1.85,4.62,4.64
			c0,0.3-0.02,0.61-0.07,0.91h-6.86c0.12,1.39,1.07,2.17,2.25,2.17c1.02,0,1.58-0.51,1.88-1.13h2.56
			C483.62,606.31,482.06,607.68,479.74,607.68z M477.45,601.96h4.45c-0.03-1.24-1.02-2.02-2.24-2.02
			C478.54,599.94,477.64,600.67,477.45,601.96z"/>
		<path class="st13" d="M488.46,607.53h-2.37v-9.38h2.37v1.46c0.59-0.96,1.58-1.59,2.88-1.59v2.49h-0.63
			c-1.41,0-2.25,0.54-2.25,2.35V607.53z"/>
		<path class="st13" d="M494.48,598.15l2.37,7.2l2.37-7.2h2.52l-3.47,9.38h-2.88l-3.46-9.38H494.48z"/>
		<path class="st13" d="M502.83,595.64c0-0.78,0.61-1.39,1.46-1.39c0.83,0,1.46,0.61,1.46,1.39c0,0.78-0.63,1.39-1.46,1.39
			C503.44,597.03,502.83,596.42,502.83,595.64z M503.08,598.15h2.37v9.38h-2.37V598.15z"/>
		<path class="st13" d="M511.82,598c2.34,0,3.91,1.22,4.42,3.32h-2.56c-0.27-0.8-0.9-1.3-1.88-1.3c-1.32,0-2.2,1-2.2,2.83
			s0.88,2.81,2.2,2.81c0.98,0,1.59-0.44,1.88-1.29h2.56c-0.51,2-2.08,3.32-4.42,3.32c-2.71,0-4.64-1.9-4.64-4.84
			C507.18,599.89,509.11,598,511.82,598z"/>
		<path class="st13" d="M522.09,607.68c-2.73,0-4.71-1.9-4.71-4.84c0-2.96,1.93-4.84,4.71-4.84c2.71,0,4.62,1.85,4.62,4.64
			c0,0.3-0.02,0.61-0.07,0.91h-6.86c0.12,1.39,1.07,2.17,2.25,2.17c1.02,0,1.58-0.51,1.88-1.13h2.56
			C525.96,606.31,524.41,607.68,522.09,607.68z M519.8,601.96h4.46c-0.03-1.24-1.02-2.02-2.24-2.02
			C520.88,599.94,519.98,600.67,519.8,601.96z"/>
	</g>
	<g>
		<path class="st13" d="M510.39,555.43c-0.02-0.02-0.04-0.04-0.06-0.06c-0.02-0.02-0.04-0.03-0.06-0.05l-2.51-1.75
			c-0.29-0.2-0.69-0.13-0.89,0.16c-0.2,0.29-0.13,0.69,0.16,0.89l0.85,0.59h-24.42c-0.35,0-0.64,0.29-0.64,0.64
			c0,0.35,0.29,0.64,0.64,0.64h24.41l-0.84,0.58c-0.29,0.2-0.36,0.6-0.16,0.89c0.12,0.18,0.32,0.27,0.53,0.27
			c0.13,0,0.25-0.04,0.36-0.11l2.51-1.74c0.02-0.02,0.05-0.03,0.07-0.05c0,0,0,0,0,0c0,0,0,0,0,0c0.02-0.02,0.04-0.04,0.05-0.05
			c0,0,0,0,0,0c0.1-0.11,0.16-0.25,0.16-0.41c0,0,0,0,0,0c0,0,0,0,0,0c0,0,0,0,0,0c0,0,0,0,0,0c0,0,0,0,0,0c0,0,0,0,0,0
			c0,0,0,0,0-0.01c0,0,0,0,0,0c0,0,0,0,0,0c0,0,0,0,0,0C510.55,555.68,510.49,555.54,510.39,555.43
			C510.39,555.43,510.39,555.43,510.39,555.43z"/>
		<path class="st13" d="M518.68,526.34l-7.92-11.22c-0.01-0.01-0.02-0.03-0.03-0.04c-0.06-0.07-0.13-0.13-0.21-0.17
			c-0.08-0.04-0.16-0.06-0.25-0.07c-0.02,0-0.03,0-0.05,0h-8.2c-0.28,0-0.52,0.18-0.61,0.44c-0.72,2.21-2.62,3.69-4.74,3.69
			c-2.11,0-4.01-1.48-4.73-3.69c-0.09-0.26-0.33-0.44-0.61-0.44h-8.2c-0.02,0-0.03,0-0.05,0c-0.09,0.01-0.18,0.03-0.26,0.07
			c-0.08,0.04-0.14,0.09-0.2,0.16c-0.01,0.01-0.02,0.03-0.03,0.04l-7.92,11.22c-0.1,0.14-0.14,0.31-0.11,0.48s0.13,0.32,0.27,0.41
			l6.45,4.47c0.05,0.08,0.11,0.16,0.19,0.21c0.1,0.07,0.22,0.11,0.34,0.12c0.26,0.08,0.54-0.02,0.71-0.25
			c0.09-0.12,0.12-0.27,0.11-0.4l0.32-0.45l-0.12,20.65l-0.61-0.87c-0.2-0.29-0.6-0.36-0.89-0.15c-0.29,0.2-0.36,0.6-0.15,0.89
			l1.76,2.5c0.12,0.17,0.31,0.27,0.52,0.27c0.21,0,0.4-0.1,0.52-0.27l1.76-2.5c0.2-0.29,0.13-0.69-0.15-0.89
			c-0.29-0.2-0.69-0.13-0.89,0.15l-0.59,0.84l0.13-22.63c0-0.02,0-0.03,0-0.05c-0.01-0.09-0.03-0.18-0.07-0.25
			c-0.04-0.08-0.09-0.15-0.16-0.2c-0.06-0.05-0.13-0.09-0.2-0.11c-0.08-0.03-0.16-0.03-0.24-0.03c-0.09,0.01-0.18,0.03-0.25,0.07
			c-0.08,0.04-0.15,0.1-0.21,0.17c-0.01,0.01-0.02,0.02-0.03,0.04l-1.35,1.92l-5.64-3.91l7.37-10.43h7.43
			c0.99,2.49,3.26,4.13,5.78,4.13c2.53,0,4.8-1.64,5.79-4.13h7.43l7.36,10.43l-4.57,3.18c-0.29,0.2-0.36,0.6-0.16,0.89
			c0.2,0.29,0.6,0.36,0.89,0.16l5.09-3.54c0.14-0.1,0.23-0.25,0.26-0.41C518.82,526.65,518.78,526.48,518.68,526.34z"/>
		<path class="st13" d="M510.13,528.53c-0.12-0.17-0.31-0.27-0.52-0.27c-0.21,0-0.4,0.1-0.52,0.27l-1.76,2.5
			c-0.2,0.29-0.13,0.69,0.15,0.89c0.29,0.2,0.69,0.13,0.89-0.15l0.61-0.87l0.13,22.68c0,0.35,0.29,0.63,0.64,0.63c0,0,0,0,0,0
			c0.35,0,0.64-0.29,0.63-0.64l-0.13-22.64l0.59,0.83c0.2,0.29,0.6,0.36,0.89,0.15c0.29-0.2,0.36-0.6,0.15-0.89L510.13,528.53z"/>
	</g>
	<g>
		<path class="st7" d="M981.42,575.94h8.67v1.91h-3.15v9.91h-2.37v-9.91h-3.15V575.94z"/>
		<path class="st7" d="M995.92,587.91c-2.73,0-4.71-1.9-4.71-4.84c0-2.96,1.93-4.84,4.71-4.84c2.71,0,4.62,1.85,4.62,4.64
			c0,0.31-0.02,0.61-0.07,0.91h-6.86c0.12,1.39,1.07,2.17,2.25,2.17c1.02,0,1.58-0.51,1.88-1.13h2.56
			C999.8,586.54,998.24,587.91,995.92,587.91z M993.64,582.19h4.46c-0.03-1.24-1.02-2.02-2.24-2.02
			C994.72,580.17,993.82,580.9,993.64,582.19z"/>
		<path class="st7" d="M1006.31,578.22c2.34,0,3.91,1.22,4.42,3.32h-2.56c-0.27-0.8-0.9-1.3-1.88-1.3c-1.32,0-2.2,1-2.2,2.83
			c0,1.83,0.88,2.81,2.2,2.81c0.98,0,1.59-0.44,1.88-1.29h2.56c-0.51,2-2.08,3.32-4.42,3.32c-2.71,0-4.64-1.9-4.64-4.84
			C1001.67,580.12,1003.6,578.22,1006.31,578.22z"/>
		<path class="st7" d="M1012.47,575.22h2.37v4.32c0.61-0.8,1.66-1.3,2.91-1.3c2.12,0,3.66,1.42,3.66,4.01v5.5h-2.37v-5.18
			c0-1.51-0.83-2.32-2.08-2.32c-1.29,0-2.12,0.81-2.12,2.32v5.18h-2.37V575.22z"/>
		<path class="st7" d="M1030.24,582.58c0-1.51-0.83-2.32-2.08-2.32c-1.29,0-2.12,0.81-2.12,2.32v5.18h-2.37v-9.38h2.37v1.17
			c0.61-0.8,1.63-1.3,2.83-1.3c2.19,0,3.74,1.42,3.74,4.01v5.5h-2.37V582.58z"/>
		<path class="st7" d="M1039.03,587.91c-2.71,0-4.76-1.9-4.76-4.84c0-2.96,2.12-4.84,4.83-4.84s4.83,1.88,4.83,4.84
			C1043.93,586.01,1041.76,587.91,1039.03,587.91z M1039.03,585.84c1.25,0,2.46-0.91,2.46-2.78c0-1.88-1.17-2.78-2.42-2.78
			s-2.39,0.9-2.39,2.78C1036.68,584.93,1037.76,585.84,1039.03,585.84z"/>
		<path class="st7" d="M1045.67,575.22h2.37v12.53h-2.37V575.22z"/>
		<path class="st7" d="M1054.55,587.91c-2.71,0-4.76-1.9-4.76-4.84c0-2.96,2.12-4.84,4.83-4.84s4.83,1.88,4.83,4.84
			C1059.44,586.01,1057.27,587.91,1054.55,587.91z M1054.55,585.84c1.25,0,2.46-0.91,2.46-2.78c0-1.88-1.17-2.78-2.42-2.78
			s-2.39,0.9-2.39,2.78C1052.19,584.93,1053.28,585.84,1054.55,585.84z"/>
		<path class="st7" d="M1064.86,578.22c1.47,0,2.54,0.68,3.1,1.49v-1.34h2.39v9.45c0,2.54-1.56,4.56-4.64,4.56
			c-2.64,0-4.49-1.32-4.73-3.47h2.35c0.24,0.85,1.12,1.41,2.3,1.41c1.3,0,2.32-0.75,2.32-2.49v-1.46c-0.56,0.81-1.63,1.54-3.1,1.54
			c-2.39,0-4.29-1.95-4.29-4.88S1062.48,578.22,1064.86,578.22z M1065.47,580.31c-1.27,0-2.47,0.95-2.47,2.73s1.2,2.79,2.47,2.79
			c1.3,0,2.49-0.98,2.49-2.76C1067.96,581.29,1066.78,580.31,1065.47,580.31z"/>
		<path class="st7" d="M1079.13,578.38h2.52l-5.81,13.82h-2.52l2.03-4.67l-3.76-9.15h2.66l2.42,6.55L1079.13,578.38z"/>
	</g>
	<g>
		<path class="st15" d="M1030.85,368.01v9.94h3.9v1.88h-6.27v-11.82H1030.85z"/>
		<path class="st15" d="M1040.42,379.98c-2.71,0-4.76-1.9-4.76-4.84c0-2.96,2.12-4.84,4.83-4.84s4.83,1.88,4.83,4.84
			C1045.31,378.09,1043.14,379.98,1040.42,379.98z M1040.42,377.92c1.25,0,2.46-0.91,2.46-2.78c0-1.88-1.17-2.78-2.42-2.78
			s-2.39,0.9-2.39,2.78C1038.06,377,1039.15,377.92,1040.42,377.92z"/>
		<path class="st15" d="M1050.73,370.3c1.47,0,2.54,0.68,3.1,1.49v-1.34h2.39v9.45c0,2.54-1.56,4.56-4.64,4.56
			c-2.64,0-4.49-1.32-4.72-3.47h2.35c0.24,0.85,1.12,1.41,2.3,1.41c1.3,0,2.32-0.75,2.32-2.49v-1.46c-0.56,0.81-1.63,1.54-3.1,1.54
			c-2.39,0-4.29-1.95-4.29-4.88S1048.34,370.3,1050.73,370.3z M1051.34,372.38c-1.27,0-2.47,0.95-2.47,2.73s1.2,2.79,2.47,2.79
			c1.3,0,2.49-0.98,2.49-2.76C1053.83,373.36,1052.65,372.38,1051.34,372.38z"/>
		<path class="st15" d="M1058.29,367.94c0-0.78,0.61-1.39,1.46-1.39c0.83,0,1.46,0.61,1.46,1.39c0,0.78-0.63,1.39-1.46,1.39
			C1058.9,369.33,1058.29,368.72,1058.29,367.94z M1058.54,370.45h2.37v9.38h-2.37V370.45z"/>
		<path class="st15" d="M1066.84,379.98c-2.35,0-4-1.37-4.1-3.12h2.39c0.08,0.71,0.75,1.25,1.69,1.25c0.93,0,1.44-0.42,1.44-0.97
			c0-1.68-5.3-0.61-5.3-4.05c0-1.56,1.39-2.81,3.71-2.81c2.27,0,3.64,1.24,3.78,3.1h-2.27c-0.07-0.73-0.64-1.22-1.58-1.22
			c-0.88,0-1.34,0.36-1.34,0.9c0,1.71,5.2,0.64,5.27,4.08C1070.53,378.76,1069.13,379.98,1066.84,379.98z"/>
		<path class="st15" d="M1072.85,372.4h-1.12v-1.95h1.12v-2.32h2.39v2.32h2.1v1.95h-2.1v4.54c0,0.63,0.25,0.9,1,0.9h1.1v2h-1.49
			c-1.79,0-3-0.76-3-2.91V372.4z"/>
		<path class="st15" d="M1078.8,367.94c0-0.78,0.61-1.39,1.46-1.39c0.83,0,1.46,0.61,1.46,1.39c0,0.78-0.63,1.39-1.46,1.39
			C1079.41,369.33,1078.8,368.72,1078.8,367.94z M1079.05,370.45h2.37v9.38h-2.37V370.45z"/>
		<path class="st15" d="M1087.79,370.3c2.34,0,3.91,1.22,4.42,3.32h-2.56c-0.27-0.8-0.9-1.3-1.88-1.3c-1.32,0-2.2,1-2.2,2.83
			c0,1.83,0.88,2.81,2.2,2.81c0.98,0,1.59-0.44,1.88-1.29h2.56c-0.51,2-2.08,3.32-4.42,3.32c-2.71,0-4.64-1.9-4.64-4.84
			C1083.15,372.19,1085.08,370.3,1087.79,370.3z"/>
		<path class="st15" d="M1097.55,379.98c-2.35,0-4-1.37-4.1-3.12h2.39c0.08,0.71,0.75,1.25,1.69,1.25c0.93,0,1.44-0.42,1.44-0.97
			c0-1.68-5.3-0.61-5.3-4.05c0-1.56,1.39-2.81,3.71-2.81c2.27,0,3.64,1.24,3.78,3.1h-2.27c-0.07-0.73-0.64-1.22-1.58-1.22
			c-0.88,0-1.34,0.36-1.34,0.9c0,1.71,5.2,0.64,5.27,4.08C1101.24,378.76,1099.84,379.98,1097.55,379.98z"/>
	</g>
	<g>
		<path class="st4" d="M938.09,179.04h-4.49v2.96h3.98v1.88h-3.98v3.13h4.49v1.93h-6.86v-11.84h6.86V179.04z"/>
		<path class="st4" d="M940.62,181.51h-1.12v-1.95h1.12v-2.32h2.39v2.32h2.1v1.95h-2.1v4.54c0,0.63,0.25,0.9,1,0.9h1.1v2h-1.49
			c-1.79,0-3-0.76-3-2.91V181.51z"/>
		<path class="st4" d="M946.82,176.42h2.37v4.32c0.61-0.8,1.66-1.3,2.91-1.3c2.12,0,3.66,1.42,3.66,4.01v5.5h-2.37v-5.18
			c0-1.51-0.83-2.32-2.08-2.32c-1.29,0-2.12,0.81-2.12,2.32v5.18h-2.37V176.42z"/>
		<path class="st4" d="M957.76,177.06c0-0.78,0.61-1.39,1.46-1.39c0.83,0,1.46,0.61,1.46,1.39c0,0.78-0.63,1.39-1.46,1.39
			C958.37,178.45,957.76,177.84,957.76,177.06z M958.01,179.57h2.37v9.38h-2.37V179.57z"/>
		<path class="st4" d="M966.75,179.41c2.34,0,3.91,1.22,4.42,3.32h-2.56c-0.27-0.8-0.9-1.3-1.88-1.3c-1.32,0-2.2,1-2.2,2.83
			c0,1.83,0.88,2.81,2.2,2.81c0.98,0,1.59-0.44,1.88-1.29h2.56c-0.51,2-2.08,3.32-4.42,3.32c-2.71,0-4.64-1.9-4.64-4.84
			C962.11,181.31,964.04,179.41,966.75,179.41z"/>
		<path class="st4" d="M976.59,179.41c1.51,0,2.54,0.71,3.1,1.49v-1.34h2.39v9.38h-2.39v-1.37c-0.56,0.81-1.63,1.52-3.12,1.52
			c-2.37,0-4.27-1.95-4.27-4.88S974.21,179.41,976.59,179.41z M977.2,181.5c-1.27,0-2.47,0.95-2.47,2.73s1.2,2.79,2.47,2.79
			c1.3,0,2.49-0.98,2.49-2.76C979.69,182.48,978.51,181.5,977.2,181.5z"/>
		<path class="st4" d="M984.4,176.42h2.37v12.53h-2.37V176.42z"/>
		<path class="st4" d="M912.71,199.74c2.34,0,3.91,1.22,4.42,3.32h-2.56c-0.27-0.8-0.9-1.3-1.88-1.3c-1.32,0-2.2,1-2.2,2.83
			c0,1.83,0.88,2.81,2.2,2.81c0.98,0,1.59-0.44,1.88-1.29h2.56c-0.51,2-2.08,3.32-4.42,3.32c-2.71,0-4.64-1.9-4.64-4.84
			C908.07,201.64,910,199.74,912.71,199.74z"/>
		<path class="st4" d="M923.04,209.43c-2.71,0-4.76-1.9-4.76-4.84c0-2.96,2.12-4.84,4.83-4.84s4.83,1.88,4.83,4.84
			C927.94,207.53,925.77,209.43,923.04,209.43z M923.04,207.36c1.25,0,2.46-0.91,2.46-2.78c0-1.88-1.17-2.78-2.42-2.78
			s-2.39,0.9-2.39,2.78C920.69,206.45,921.77,207.36,923.04,207.36z"/>
		<path class="st4" d="M942.81,204.09c0-1.49-0.83-2.27-2.08-2.27c-1.27,0-2.1,0.78-2.1,2.27v5.18h-2.37v-5.18
			c0-1.49-0.83-2.27-2.08-2.27c-1.29,0-2.12,0.78-2.12,2.27v5.18h-2.37v-9.38h2.37v1.13c0.59-0.78,1.59-1.27,2.76-1.27
			c1.46,0,2.66,0.63,3.3,1.79c0.61-1.07,1.85-1.79,3.22-1.79c2.25,0,3.84,1.42,3.84,4.01v5.5h-2.37V204.09z"/>
		<path class="st4" d="M952.91,199.74c2.41,0,4.29,1.88,4.29,4.81s-1.88,4.88-4.29,4.88c-1.47,0-2.52-0.73-3.1-1.49v5.81h-2.37
			v-13.85h2.37v1.35C950.36,200.45,951.45,199.74,952.91,199.74z M952.28,201.82c-1.27,0-2.47,0.98-2.47,2.76
			c0,1.78,1.2,2.76,2.47,2.76c1.29,0,2.49-1.02,2.49-2.79S953.57,201.82,952.28,201.82z"/>
		<path class="st4" d="M958.92,196.74h2.37v12.53h-2.37V196.74z"/>
		<path class="st4" d="M963.37,197.39c0-0.78,0.61-1.39,1.46-1.39c0.83,0,1.46,0.61,1.46,1.39c0,0.78-0.63,1.39-1.46,1.39
			C963.98,198.77,963.37,198.17,963.37,197.39z M963.63,199.89H966v9.38h-2.37V199.89z"/>
		<path class="st4" d="M972.01,199.74c1.51,0,2.54,0.71,3.1,1.49v-1.34h2.39v9.38h-2.39v-1.37c-0.56,0.81-1.63,1.52-3.12,1.52
			c-2.37,0-4.27-1.95-4.27-4.88S969.62,199.74,972.01,199.74z M972.62,201.82c-1.27,0-2.47,0.95-2.47,2.73s1.2,2.79,2.47,2.79
			c1.3,0,2.49-0.98,2.49-2.76C975.11,202.81,973.93,201.82,972.62,201.82z"/>
		<path class="st4" d="M986.39,204.09c0-1.51-0.83-2.32-2.08-2.32c-1.29,0-2.12,0.81-2.12,2.32v5.18h-2.37v-9.38h2.37v1.17
			c0.61-0.8,1.63-1.3,2.83-1.3c2.19,0,3.74,1.42,3.74,4.01v5.5h-2.37V204.09z"/>
		<path class="st4" d="M995.05,199.74c2.34,0,3.91,1.22,4.42,3.32h-2.56c-0.27-0.8-0.9-1.3-1.88-1.3c-1.32,0-2.2,1-2.2,2.83
			c0,1.83,0.88,2.81,2.2,2.81c0.98,0,1.59-0.44,1.88-1.29h2.56c-0.51,2-2.08,3.32-4.42,3.32c-2.71,0-4.64-1.9-4.64-4.84
			C990.41,201.64,992.34,199.74,995.05,199.74z"/>
		<path class="st4" d="M1005.31,209.43c-2.73,0-4.71-1.9-4.71-4.84c0-2.96,1.93-4.84,4.71-4.84c2.71,0,4.62,1.85,4.62,4.64
			c0,0.31-0.02,0.61-0.07,0.91h-6.86c0.12,1.39,1.07,2.17,2.25,2.17c1.02,0,1.58-0.51,1.88-1.13h2.56
			C1009.19,208.06,1007.63,209.43,1005.31,209.43z M1003.03,203.7h4.46c-0.03-1.24-1.02-2.02-2.24-2.02
			C1004.11,201.69,1003.21,202.42,1003.03,203.7z"/>
	</g>
	<g>
		<path class="st6" d="M744.18,117.33l2.71,3.05h-2.95l-1.79-2.15c-0.47,0.12-1,0.19-1.52,0.19c-3.34,0-6.06-2.51-6.06-6.06
			c0-3.54,2.73-6.05,6.06-6.05c3.37,0,6.05,2.51,6.05,6.05C746.67,114.5,745.69,116.27,744.18,117.33z M740.62,116.3
			c2.13,0,3.61-1.54,3.61-3.95c0-2.41-1.47-3.91-3.61-3.91c-2.15,0-3.62,1.51-3.62,3.91C737,114.76,738.47,116.3,740.62,116.3z"/>
		<path class="st6" d="M757.32,118.3h-2.39v-1.19c-0.59,0.8-1.63,1.3-2.79,1.3c-2.18,0-3.76-1.42-3.76-4v-5.5h2.37v5.17
			c0,1.51,0.83,2.32,2.08,2.32c1.29,0,2.1-0.81,2.1-2.32v-5.17h2.39V118.3z"/>
		<path class="st6" d="M763.34,108.76c1.51,0,2.54,0.71,3.1,1.49v-1.34h2.39v9.38h-2.39v-1.37c-0.56,0.81-1.63,1.52-3.12,1.52
			c-2.37,0-4.27-1.95-4.27-4.88S760.95,108.76,763.34,108.76z M763.95,110.85c-1.27,0-2.47,0.95-2.47,2.73s1.2,2.79,2.47,2.79
			c1.3,0,2.49-0.98,2.49-2.76C766.43,111.83,765.25,110.85,763.95,110.85z"/>
		<path class="st6" d="M771.14,105.76h2.37v12.53h-2.37V105.76z"/>
		<path class="st6" d="M775.6,106.41c0-0.78,0.61-1.39,1.46-1.39c0.83,0,1.46,0.61,1.46,1.39c0,0.78-0.63,1.39-1.46,1.39
			C776.21,107.8,775.6,107.19,775.6,106.41z M775.85,108.92h2.37v9.38h-2.37V108.92z"/>
		<path class="st6" d="M780.93,110.86h-1.12v-1.95h1.12v-2.32h2.39v2.32h2.1v1.95h-2.1v4.54c0,0.63,0.25,0.9,1,0.9h1.1v2h-1.49
			c-1.79,0-3-0.76-3-2.91V110.86z"/>
		<path class="st6" d="M793.59,108.92h2.52l-5.81,13.82h-2.52l2.03-4.67l-3.76-9.15h2.66l2.42,6.55L793.59,108.92z"/>
		<path class="st6" d="M724.28,129.09c1.51,0,2.54,0.71,3.1,1.49v-1.34h2.39v9.38h-2.39v-1.37c-0.56,0.81-1.63,1.52-3.12,1.52
			c-2.37,0-4.27-1.95-4.27-4.88S721.89,129.09,724.28,129.09z M724.89,131.17c-1.27,0-2.47,0.95-2.47,2.73s1.2,2.79,2.47,2.79
			c1.3,0,2.49-0.98,2.49-2.76C727.38,132.15,726.19,131.17,724.89,131.17z"/>
		<path class="st6" d="M735.68,138.78c-2.35,0-4-1.37-4.1-3.12h2.39c0.08,0.71,0.75,1.25,1.69,1.25c0.93,0,1.44-0.42,1.44-0.97
			c0-1.68-5.3-0.61-5.3-4.05c0-1.56,1.39-2.81,3.71-2.81c2.27,0,3.64,1.24,3.78,3.1h-2.27c-0.07-0.73-0.64-1.22-1.58-1.22
			c-0.88,0-1.34,0.36-1.34,0.9c0,1.71,5.2,0.64,5.27,4.08C739.37,137.56,737.96,138.78,735.68,138.78z"/>
		<path class="st6" d="M744.91,138.78c-2.35,0-4-1.37-4.1-3.12h2.39c0.08,0.71,0.75,1.25,1.69,1.25c0.93,0,1.44-0.42,1.44-0.97
			c0-1.68-5.3-0.61-5.3-4.05c0-1.56,1.39-2.81,3.71-2.81c2.27,0,3.64,1.24,3.78,3.1h-2.27c-0.07-0.73-0.64-1.22-1.58-1.22
			c-0.88,0-1.34,0.36-1.34,0.9c0,1.71,5.2,0.64,5.27,4.08C748.6,137.56,747.19,138.78,744.91,138.78z"/>
		<path class="st6" d="M759.41,138.62h-2.39v-1.19c-0.59,0.8-1.63,1.3-2.79,1.3c-2.18,0-3.76-1.42-3.76-4v-5.5h2.37v5.17
			c0,1.51,0.83,2.32,2.08,2.32c1.29,0,2.1-0.81,2.1-2.32v-5.17h2.39V138.62z"/>
		<path class="st6" d="M764.12,138.62h-2.37v-9.38h2.37v1.46c0.59-0.97,1.58-1.59,2.88-1.59v2.49h-0.63c-1.41,0-2.25,0.54-2.25,2.35
			V138.62z"/>
		<path class="st6" d="M772.26,129.09c1.51,0,2.54,0.71,3.1,1.49v-1.34h2.39v9.38h-2.39v-1.37c-0.56,0.81-1.63,1.52-3.12,1.52
			c-2.37,0-4.27-1.95-4.27-4.88S769.87,129.09,772.26,129.09z M772.87,131.17c-1.27,0-2.47,0.95-2.47,2.73s1.2,2.79,2.47,2.79
			c1.3,0,2.49-0.98,2.49-2.76C775.36,132.15,774.18,131.17,772.87,131.17z"/>
		<path class="st6" d="M786.64,133.44c0-1.51-0.83-2.32-2.08-2.32c-1.29,0-2.12,0.81-2.12,2.32v5.18h-2.37v-9.38h2.37v1.17
			c0.61-0.8,1.63-1.3,2.83-1.3c2.19,0,3.74,1.42,3.74,4.01v5.5h-2.37V133.44z"/>
		<path class="st6" d="M795.3,129.09c2.34,0,3.91,1.22,4.42,3.32h-2.56c-0.27-0.8-0.9-1.3-1.88-1.3c-1.32,0-2.2,1-2.2,2.83
			c0,1.83,0.88,2.81,2.2,2.81c0.98,0,1.59-0.44,1.88-1.29h2.56c-0.51,2-2.08,3.32-4.42,3.32c-2.71,0-4.64-1.9-4.64-4.84
			C790.66,130.99,792.59,129.09,795.3,129.09z"/>
		<path class="st6" d="M805.56,138.78c-2.73,0-4.71-1.9-4.71-4.84c0-2.96,1.93-4.84,4.71-4.84c2.71,0,4.62,1.85,4.62,4.64
			c0,0.31-0.02,0.61-0.07,0.91h-6.86c0.12,1.39,1.07,2.17,2.25,2.17c1.02,0,1.58-0.51,1.88-1.13h2.56
			C809.44,137.4,807.88,138.78,805.56,138.78z M803.28,133.05h4.46c-0.03-1.24-1.02-2.02-2.24-2.02
			C804.36,131.04,803.46,131.77,803.28,133.05z"/>
	</g>
	<g>
		<g>
			<g>
				<g>
					<path class="st6" d="M762.46,53.23c-7.85,0-8.32-7.14-8.32-7.22c-0.03-0.51,0.37-0.95,0.88-0.98c0.52-0.03,0.95,0.37,0.98,0.88
						l0,0c0.01,0.22,0.4,5.45,6.46,5.45c6.06,0,6.45-5.23,6.46-5.45c0.03-0.51,0.48-0.91,0.98-0.88c0.51,0.03,0.91,0.46,0.88,0.98
						C770.78,46.09,770.31,53.23,762.46,53.23z"/>
				</g>
				<g>
					<path class="st6" d="M746.73,65.9c-0.25,0-0.5-0.1-0.68-0.3l-6.44-6.9c-0.32-0.34-0.34-0.86-0.05-1.22l6.33-7.88l1.45,1.17
						l-5.83,7.25l5.33,5.71l3.18-2.28l1.09,1.51l-3.84,2.76C747.11,65.84,746.92,65.9,746.73,65.9z"/>
				</g>
				<g>
					<path class="st6" d="M778.19,65.9c-0.19,0-0.38-0.06-0.54-0.17l-3.85-2.76l1.09-1.51l3.18,2.28l5.33-5.71l-5.83-7.25l1.45-1.17
						l6.33,7.88c0.29,0.36,0.27,0.88-0.05,1.22l-6.44,6.9C778.69,65.8,778.44,65.9,778.19,65.9z"/>
				</g>
				<g>
					<path class="st6" d="M774.17,87.01h-23.42c-0.51,0-0.93-0.41-0.93-0.92c0-0.16-0.17-15.75-0.17-23.23
						c0-7.13-3.73-12.05-3.76-12.1c-0.3-0.39-0.25-0.96,0.14-1.28c3.61-3.05,8.6-4.36,8.82-4.41c0.08-0.02,0.15-0.03,0.23-0.03
						h14.78c0.08,0,0.16,0.01,0.23,0.03c0.21,0.05,5.2,1.36,8.81,4.41c0.38,0.32,0.44,0.89,0.14,1.28
						c-0.04,0.05-3.76,4.97-3.76,12.1c0,7.48-0.17,23.08-0.17,23.23C775.1,86.6,774.68,87.01,774.17,87.01z M751.67,85.15h21.57
						c0.04-3.47,0.16-15.87,0.16-22.29c0-6.18,2.51-10.75,3.63-12.48c-2.93-2.19-6.63-3.29-7.31-3.48H755.2
						c-0.67,0.19-4.38,1.29-7.31,3.48c1.12,1.73,3.63,6.3,3.63,12.48C751.52,69.28,751.64,81.68,751.67,85.15z"/>
				</g>
			</g>
		</g>
		<circle class="st5" cx="772.89" cy="67.1" r="9.34"/>
		<g>
			<g>
				<path class="st6" d="M772.72,77.07c-5.5,0-9.98-4.48-9.98-9.98s4.48-9.98,9.98-9.98s9.98,4.48,9.98,9.98
					S778.23,77.07,772.72,77.07z M772.72,58.43c-4.77,0-8.65,3.88-8.65,8.65s3.88,8.65,8.65,8.65s8.65-3.88,8.65-8.65
					S777.49,58.43,772.72,58.43z"/>
			</g>
			<g>
				<path class="st6" d="M766.19,66.48c-0.04,0-0.08,0-0.13-0.01c-0.36-0.07-0.6-0.42-0.53-0.78c0.56-2.91,2.8-5.18,5.7-5.78
					c0.36-0.08,0.71,0.16,0.79,0.52c0.07,0.36-0.16,0.71-0.52,0.79c-2.38,0.49-4.21,2.34-4.67,4.72
					C766.78,66.26,766.5,66.48,766.19,66.48z"/>
			</g>
			<g>
				<path class="st6" d="M788.69,84.47c-0.56,0-1.08-0.22-1.47-0.61l-6.65-6.66c-0.39-0.39-0.61-0.91-0.61-1.47
					c0-0.55,0.22-1.08,0.61-1.47c0.81-0.81,2.13-0.81,2.94,0c0,0,0,0,0,0l6.66,6.66c0.81,0.81,0.81,2.13,0,2.94
					C789.77,84.26,789.25,84.47,788.69,84.47z M782.04,74.99c-0.19,0-0.38,0.07-0.53,0.22c-0.14,0.14-0.22,0.33-0.22,0.53
					c0,0.2,0.08,0.39,0.22,0.53l6.66,6.66c0.28,0.28,0.77,0.28,1.06,0c0.29-0.29,0.29-0.76,0-1.06l-6.65-6.65
					C782.42,75.07,782.23,74.99,782.04,74.99z"/>
			</g>
			<g>
				
					<rect x="779.67" y="73.04" transform="matrix(0.7071 -0.7071 0.7071 0.7071 176.2032 573.4661)" class="st6" width="1.33" height="1.99"/>
			</g>
		</g>
	</g>
	<g>
		<path class="st14" d="M959.6,128.68c-0.19,0-0.36-0.14-0.39-0.34c-0.18-1.19,0.2-2.21,1.13-3.04c0.74-0.66,1.66-1.05,2.26-1.3
			c0.17-0.07,0.32-0.13,0.41-0.18c1.7-0.87,2.76-2.52,2.76-4.32c0-2.72-2.38-4.93-5.31-4.93c-1.68,0-3.28,0.75-4.28,2
			c-0.14,0.17-0.39,0.2-0.56,0.06c-0.17-0.14-0.2-0.39-0.06-0.56c0.56-0.7,1.29-1.28,2.12-1.67c0.87-0.41,1.8-0.62,2.78-0.62
			c3.37,0,6.11,2.57,6.11,5.72c0,2.1-1.22,4.02-3.19,5.03c-0.12,0.06-0.28,0.13-0.46,0.21c-0.56,0.24-1.4,0.59-2.04,1.16
			c-0.73,0.65-1.01,1.41-0.87,2.32c0.03,0.22-0.12,0.42-0.33,0.45C959.64,128.68,959.62,128.68,959.6,128.68z"/>
		<path class="st14" d="M988.38,156.64C988.38,156.64,988.38,156.64,988.38,156.64l-22.99-0.02c-0.22,0-0.4-0.18-0.4-0.4
			c0-0.22,0.18-0.4,0.4-0.4c0,0,0,0,0,0l22.99,0.02c0,0,0,0,0,0c0.7,0,1.35-0.21,1.87-0.62c0.49-0.38,0.84-0.9,1.04-1.51
			c0.19-0.61,0.2-1.24,0.02-1.83c-0.19-0.63-0.6-1.18-1.17-1.59l-30.55-21.54l-30.83,21.45c-0.58,0.4-0.99,0.95-1.18,1.58
			c-0.18,0.59-0.18,1.22,0.01,1.83s0.55,1.13,1.03,1.51c0.52,0.41,1.17,0.63,1.88,0.63l29.1,0.04c0.22,0,0.4,0.18,0.4,0.4
			c0,0.22-0.18,0.4-0.4,0.4c0,0,0,0,0,0l-29.1-0.04c-1.71,0-3.15-1.06-3.66-2.7c-0.51-1.64,0.07-3.33,1.47-4.3l31.06-21.61
			c0.14-0.1,0.32-0.09,0.45,0l30.77,21.7c1.4,0.99,1.97,2.68,1.45,4.31C991.53,155.59,990.09,156.64,988.38,156.64z"/>
		<g>
			<g>
				<g>
					<g>
						<g>
							<path class="st14" d="M957.11,152.04c-0.22,0-0.39-0.17-0.4-0.39c-0.02-1.83-0.7-2.66-1.81-3.81
								c-2.35-2.42-5.91-2.06-7.82-1.86c-0.11,0.01-0.21,0.02-0.3,0.03c-0.22,0.02-0.41-0.14-0.43-0.36
								c-0.02-0.22,0.14-0.41,0.36-0.43c0.09-0.01,0.19-0.02,0.3-0.03c0.96-0.1,2.42-0.25,3.95-0.04c1.86,0.25,3.38,0.97,4.52,2.14
								c1.21,1.25,2.01,2.23,2.03,4.36C957.5,151.85,957.33,152.03,957.11,152.04C957.11,152.04,957.11,152.04,957.11,152.04z"/>
						</g>
						<g>
							<path class="st14" d="M953.87,152.52c-0.69,0-1.37-0.15-2.04-0.6c-0.71-0.48-1.46-1.48-2.34-2.63
								c-0.91-1.2-1.94-2.55-2.99-3.37c-0.17-0.13-0.2-0.38-0.07-0.56c0.13-0.17,0.38-0.2,0.56-0.07c1.13,0.88,2.19,2.28,3.13,3.51
								c0.8,1.05,1.56,2.05,2.16,2.46c1.01,0.69,2.09,0.47,3.34,0.23c0.47-0.09,0.95-0.19,1.44-0.23c0.22-0.02,0.41,0.14,0.43,0.36
								c0.02,0.22-0.14,0.41-0.36,0.43c-0.46,0.04-0.92,0.13-1.37,0.22C955.14,152.39,954.5,152.52,953.87,152.52z"/>
						</g>
					</g>
					<path class="st14" d="M959.6,156.6c-0.19,0-0.36-0.14-0.39-0.33c-0.22-1.34-0.7-2.54-1.43-3.55c-0.59-0.81-1.34-1.51-2.23-2.07
						c-1.54-0.97-2.98-1.22-3-1.23c-0.22-0.04-0.36-0.24-0.33-0.46c0.04-0.22,0.24-0.36,0.45-0.33c0.06,0.01,1.6,0.27,3.27,1.32
						c0.98,0.62,1.81,1.39,2.47,2.28c0.81,1.12,1.35,2.43,1.59,3.9c0.03,0.22-0.11,0.42-0.33,0.45
						C959.64,156.6,959.62,156.6,959.6,156.6z"/>
				</g>
				<g>
					<g>
						<g>
							<path class="st14" d="M962.09,152.04C962.08,152.04,962.08,152.04,962.09,152.04c-0.22,0-0.4-0.18-0.4-0.4
								c0.02-2.12,0.82-3.1,2.03-4.36c1.14-1.17,2.66-1.89,4.52-2.14c1.53-0.21,2.99-0.06,3.95,0.04c0.1,0.01,0.2,0.02,0.3,0.03
								c0.22,0.02,0.38,0.22,0.36,0.43c-0.02,0.22-0.21,0.38-0.43,0.36c-0.09-0.01-0.2-0.02-0.3-0.03c-1.91-0.2-5.47-0.56-7.82,1.86
								c-1.11,1.15-1.79,1.98-1.81,3.81C962.48,151.86,962.3,152.04,962.09,152.04z"/>
						</g>
						<g>
							<path class="st14" d="M965.32,152.52c-0.64,0-1.27-0.13-1.9-0.25c-0.45-0.09-0.91-0.18-1.37-0.22
								c-0.22-0.02-0.38-0.21-0.36-0.43s0.21-0.38,0.43-0.36c0.49,0.05,0.98,0.14,1.44,0.23c1.25,0.25,2.33,0.46,3.34-0.23
								c0.6-0.41,1.36-1.4,2.16-2.46c0.94-1.23,2.01-2.63,3.13-3.51c0.17-0.13,0.42-0.1,0.56,0.07c0.13,0.17,0.1,0.42-0.07,0.56
								c-1.04,0.81-2.08,2.17-2.99,3.37c-0.88,1.15-1.64,2.15-2.34,2.63C966.7,152.37,966.01,152.52,965.32,152.52z"/>
						</g>
					</g>
					<path class="st14" d="M959.6,156.6c-0.02,0-0.04,0-0.06-0.01c-0.22-0.03-0.36-0.24-0.33-0.45c0.24-1.47,0.77-2.79,1.59-3.9
						c0.65-0.89,1.48-1.66,2.47-2.28c1.67-1.05,3.2-1.31,3.27-1.32c0.22-0.04,0.42,0.11,0.46,0.33c0.04,0.22-0.11,0.42-0.33,0.45
						l0,0c-0.01,0-1.46,0.25-3,1.23c-0.89,0.57-1.65,1.26-2.23,2.07c-0.73,1.01-1.22,2.2-1.43,3.55
						C959.96,156.47,959.79,156.6,959.6,156.6z"/>
				</g>
				<path class="st14" d="M959.6,156.6c-0.22,0-0.4-0.18-0.4-0.4v-16.8c0-0.22,0.18-0.4,0.4-0.4c0.22,0,0.4,0.18,0.4,0.4v16.8
					C959.99,156.43,959.81,156.6,959.6,156.6z"/>
			</g>
			<path class="st14" d="M959.6,146.26c-0.07,0-0.13-0.02-0.19-0.05c-0.03-0.02-0.86-0.48-1.69-1.4c-1.11-1.22-1.69-2.7-1.69-4.25
				c0-1.55,0.55-3.34,1.64-5.33c0.8-1.47,1.59-2.48,1.63-2.52c0.08-0.1,0.19-0.15,0.31-0.15c0.12,0,0.24,0.06,0.31,0.15
				c0.03,0.04,0.82,1.05,1.63,2.52c1.09,1.99,1.64,3.79,1.64,5.33c0,1.56-0.59,3.03-1.69,4.25c-0.83,0.92-1.66,1.38-1.69,1.4
				C959.73,146.25,959.66,146.26,959.6,146.26z M959.6,133.62c-0.79,1.11-2.78,4.21-2.78,6.95c0,1.37,0.49,2.61,1.47,3.7
				c0.52,0.58,1.04,0.96,1.31,1.13c0.27-0.18,0.8-0.56,1.31-1.13c0.98-1.09,1.47-2.33,1.47-3.7
				C962.38,137.83,960.38,134.73,959.6,133.62z"/>
		</g>
	</g>
	<g>
		<g>
			<g>
				<g>
					<path class="st15" d="M1096.22,339.58c-0.53,0-0.95-0.43-0.95-0.95V318.2l-19.55-8.69l-19,8.69v20.43
						c0,0.53-0.43,0.95-0.95,0.95c-0.53,0-0.95-0.43-0.95-0.95v-20.78c0-0.54,0.31-1.02,0.8-1.25l19.5-8.92
						c0.38-0.17,0.81-0.18,1.2-0.01l20.06,8.92c0.49,0.22,0.81,0.71,0.81,1.25v20.78C1097.17,339.15,1096.74,339.58,1096.22,339.58z
						 M1095.58,318.34C1095.58,318.34,1095.58,318.34,1095.58,318.34L1095.58,318.34z M1075.9,309.42L1075.9,309.42
						C1075.9,309.42,1075.9,309.42,1075.9,309.42z"/>
				</g>
				<g>
					<path class="st15" d="M1076.27,327.86c-0.13,0-0.26-0.03-0.39-0.08l-20.51-9.12c-0.48-0.21-0.7-0.78-0.48-1.26
						c0.21-0.48,0.78-0.7,1.26-0.48l20.51,9.12c0.48,0.21,0.7,0.78,0.48,1.26C1076.98,327.65,1076.63,327.86,1076.27,327.86z"/>
				</g>
				<g>
					<path class="st15" d="M1076.26,348.85c-0.21,0-0.42-0.04-0.62-0.13l-20.28-9.02c-0.48-0.21-0.7-0.78-0.48-1.26
						c0.21-0.48,0.78-0.7,1.26-0.48l20.12,8.95l19.56-8.94c0.48-0.22,1.05-0.01,1.27,0.47c0.22,0.48,0.01,1.05-0.47,1.27
						l-19.72,9.01C1076.7,348.81,1076.48,348.85,1076.26,348.85z"/>
				</g>
				<g>
					<path class="st15" d="M1076.27,327.86c-0.36,0-0.71-0.21-0.87-0.56c-0.22-0.48-0.01-1.05,0.47-1.27l19.95-9.12
						c0.48-0.22,1.05-0.01,1.27,0.47c0.22,0.48,0.01,1.05-0.47,1.27l-19.95,9.12C1076.54,327.83,1076.4,327.86,1076.27,327.86z"/>
				</g>
			</g>
			<g>
				<path class="st15" d="M1076.27,348.8c-0.53,0-0.95-0.43-0.95-0.95v-20.94c0-0.53,0.43-0.95,0.95-0.95s0.95,0.43,0.95,0.95v20.94
					C1077.22,348.37,1076.8,348.8,1076.27,348.8z"/>
			</g>
			<g>
				<path class="st15" d="M1065.72,322.95c-0.37,0-0.71-0.21-0.87-0.57c-0.21-0.48,0-1.05,0.48-1.26l19.87-8.85
					c0.48-0.21,1.05,0,1.26,0.48c0.21,0.48,0,1.05-0.48,1.26l-19.87,8.85C1065.98,322.93,1065.85,322.95,1065.72,322.95z"/>
			</g>
		</g>
		<g>
			<path class="st15" d="M1061.52,309.77h-14.37c-0.53,0-0.95-0.43-0.95-0.95c0-0.53,0.43-0.95,0.95-0.95h14.37
				c0.53,0,0.95,0.43,0.95,0.95C1062.47,309.34,1062.04,309.77,1061.52,309.77z"/>
		</g>
		<g>
			<path class="st15" d="M1048.67,316.51H1038c-0.53,0-0.95-0.43-0.95-0.95s0.43-0.95,0.95-0.95h10.66c0.53,0,0.96,0.43,0.96,0.95
				S1049.19,316.51,1048.67,316.51z"/>
		</g>
		<g>
			<path class="st15" d="M1049.53,323.24h-6.35c-0.53,0-0.95-0.43-0.95-0.95s0.43-0.95,0.95-0.95h6.35c0.53,0,0.96,0.43,0.96,0.95
				S1050.06,323.24,1049.53,323.24z"/>
		</g>
		<g>
			<path class="st15" d="M1049.66,336.72h-9.68c-0.53,0-0.95-0.43-0.95-0.95s0.43-0.95,0.95-0.95h9.68c0.53,0,0.95,0.43,0.95,0.95
				S1050.18,336.72,1049.66,336.72z"/>
		</g>
		<g>
			<path class="st15" d="M1048.67,329.98h-15.85c-0.53,0-0.95-0.43-0.95-0.95c0-0.53,0.43-0.95,0.95-0.95h15.85
				c0.53,0,0.96,0.43,0.96,0.95C1049.62,329.55,1049.19,329.98,1048.67,329.98z"/>
		</g>
	</g>
	<g>
		<g>
			<path class="st7" d="M1054.67,550h-45.71c-1.87,0-3.4-1.52-3.4-3.4v-28.65c0-1.87,1.52-3.4,3.4-3.4h45.71
				c1.87,0,3.4,1.52,3.4,3.4v28.65C1058.07,548.48,1056.55,550,1054.67,550z M1008.97,515.99c-1.08,0-1.97,0.88-1.97,1.97v28.65
				c0,1.08,0.88,1.97,1.97,1.97h45.71c1.08,0,1.97-0.88,1.97-1.97v-28.65c0-1.08-0.88-1.97-1.97-1.97H1008.97z"/>
		</g>
		<g>
			<path class="st7" d="M1035.19,555.81h-6.74c-0.4,0-0.72-0.32-0.72-0.72v-5.81c0-0.4,0.32-0.72,0.72-0.72h6.74
				c0.4,0,0.72,0.32,0.72,0.72v5.81C1035.91,555.49,1035.59,555.81,1035.19,555.81z M1029.16,554.38h5.31V550h-5.31V554.38z"/>
		</g>
		<g>
			<path class="st7" d="M1057.36,543.85h-51.07c-0.4,0-0.72-0.32-0.72-0.72c0-0.4,0.32-0.72,0.72-0.72h51.07
				c0.4,0,0.72,0.32,0.72,0.72C1058.07,543.53,1057.75,543.85,1057.36,543.85z"/>
		</g>
		<g>
			<path class="st7" d="M1040.34,555.81h-17.05c-0.4,0-0.72-0.32-0.72-0.72c0-0.4,0.32-0.72,0.72-0.72h17.05
				c0.4,0,0.72,0.32,0.72,0.72C1041.06,555.49,1040.74,555.81,1040.34,555.81z"/>
		</g>
		<g>
			<g>
				<path class="st7" d="M1036.28,534.48c-0.18,0-0.35-0.06-0.49-0.19c-0.29-0.27-0.3-0.72-0.03-1.01l8.19-8.74
					c0.27-0.29,0.72-0.3,1.01-0.03c0.29,0.27,0.3,0.72,0.03,1.01l-8.19,8.74C1036.66,534.4,1036.47,534.48,1036.28,534.48z"/>
			</g>
			<g>
				<path class="st7" d="M1033.29,534.95c-0.11,0-0.23-0.03-0.34-0.09l-8.64-4.67c-0.35-0.19-0.48-0.62-0.29-0.97
					c0.19-0.35,0.62-0.48,0.97-0.29l8.64,4.67c0.35,0.19,0.48,0.62,0.29,0.97C1033.79,534.81,1033.55,534.95,1033.29,534.95z"/>
			</g>
			<g>
				<path class="st7" d="M1017.51,536.42c-0.16,0-0.31-0.05-0.45-0.16c-0.31-0.25-0.36-0.7-0.11-1.01l4.39-5.52
					c0.25-0.31,0.7-0.36,1.01-0.11c0.31,0.25,0.36,0.7,0.11,1.01l-4.39,5.52C1017.93,536.33,1017.73,536.42,1017.51,536.42z"/>
			</g>
			<g>
				<path class="st7" d="M1016.28,539.72c-0.04,0-0.08,0-0.11,0c-1.35-0.06-2.4-1.21-2.34-2.56c0.03-0.66,0.31-1.26,0.8-1.7
					c0.48-0.44,1.11-0.67,1.77-0.64c0.66,0.03,1.26,0.31,1.7,0.8c0.44,0.48,0.67,1.11,0.64,1.77l0,0c-0.03,0.66-0.31,1.26-0.8,1.7
					C1017.48,539.49,1016.89,539.72,1016.28,539.72z M1016.28,536.24c-0.26,0-0.5,0.09-0.69,0.27c-0.2,0.18-0.32,0.44-0.33,0.71
					c-0.03,0.56,0.41,1.04,0.98,1.07c0.28,0.01,0.54-0.08,0.74-0.27s0.32-0.44,0.33-0.71c0.01-0.27-0.08-0.54-0.27-0.74
					c-0.18-0.2-0.44-0.32-0.71-0.33C1016.31,536.24,1016.29,536.24,1016.28,536.24z M1018.02,537.34L1018.02,537.34L1018.02,537.34z
					"/>
			</g>
			<g>
				<path class="st7" d="M1023.09,531.17c-0.04,0-0.08,0-0.11,0c-1.35-0.06-2.4-1.21-2.34-2.56c0.03-0.66,0.31-1.26,0.8-1.7
					c0.48-0.44,1.11-0.67,1.77-0.64c0.66,0.03,1.26,0.31,1.7,0.8c0.44,0.48,0.67,1.11,0.64,1.77l0,0c-0.03,0.66-0.31,1.26-0.8,1.7
					C1024.29,530.95,1023.71,531.17,1023.09,531.17z M1023.09,527.69c-0.26,0-0.5,0.09-0.69,0.27c-0.2,0.18-0.32,0.44-0.33,0.71
					c-0.03,0.56,0.41,1.04,0.98,1.07c0.27,0.01,0.54-0.08,0.74-0.27c0.2-0.18,0.32-0.44,0.33-0.71s-0.08-0.54-0.27-0.74
					c-0.18-0.2-0.44-0.32-0.71-0.33C1023.12,527.69,1023.1,527.69,1023.09,527.69z M1024.83,528.8L1024.83,528.8L1024.83,528.8z"/>
			</g>
			<g>
				<path class="st7" d="M1034.99,537.61c-0.04,0-0.07,0-0.11,0c-1.35-0.06-2.41-1.21-2.34-2.56c0.06-1.35,1.2-2.41,2.56-2.34
					c0.66,0.03,1.26,0.31,1.7,0.8c0.44,0.48,0.67,1.11,0.64,1.77l0,0C1037.39,536.58,1036.3,537.61,1034.99,537.61z M1034.99,534.12
					c-0.54,0-1,0.43-1.02,0.98c-0.03,0.56,0.41,1.04,0.98,1.07c0.56,0.02,1.04-0.41,1.07-0.98l0,0c0.01-0.27-0.08-0.54-0.27-0.74
					c-0.18-0.2-0.44-0.32-0.71-0.33C1035.02,534.13,1035.01,534.12,1034.99,534.12z"/>
			</g>
			<g>
				<path class="st7" d="M1045.77,526.09c-0.04,0-0.08,0-0.11,0c-0.66-0.03-1.26-0.31-1.7-0.8c-0.44-0.48-0.67-1.11-0.64-1.77
					c0.06-1.35,1.21-2.42,2.56-2.34c1.35,0.06,2.4,1.21,2.34,2.56c-0.03,0.66-0.31,1.26-0.8,1.7
					C1046.97,525.87,1046.39,526.09,1045.77,526.09z M1045.77,522.61c-0.54,0-1,0.43-1.02,0.98c-0.01,0.27,0.08,0.54,0.27,0.74
					c0.18,0.2,0.44,0.32,0.71,0.33c0.28,0.01,0.54-0.08,0.74-0.27c0.2-0.18,0.32-0.44,0.33-0.71c0.03-0.56-0.41-1.04-0.98-1.07
					C1045.8,522.61,1045.78,522.61,1045.77,522.61z"/>
			</g>
		</g>
	</g>
	<g>
		<path class="st7" d="M520.16,203.64h-1.98v4.54h-2.37v-11.82h4.35c2.85,0,4.27,1.61,4.27,3.66
			C524.43,201.81,523.21,203.64,520.16,203.64z M520.06,201.73c1.34,0,1.93-0.66,1.93-1.71c0-1.08-0.59-1.73-1.93-1.73h-1.88v3.44
			H520.06z"/>
		<path class="st7" d="M528.48,208.18h-2.37v-9.38h2.37v1.46c0.59-0.97,1.58-1.59,2.88-1.59v2.49h-0.63c-1.41,0-2.25,0.54-2.25,2.35
			V208.18z"/>
		<path class="st7" d="M537.12,208.34c-2.71,0-4.76-1.9-4.76-4.84c0-2.96,2.12-4.84,4.83-4.84s4.83,1.88,4.83,4.84
			C542.01,206.44,539.85,208.34,537.12,208.34z M537.12,206.27c1.25,0,2.46-0.91,2.46-2.78c0-1.88-1.17-2.78-2.42-2.78
			s-2.39,0.9-2.39,2.78C534.76,205.35,535.85,206.27,537.12,206.27z"/>
		<path class="st7" d="M547.45,198.65c1.24,0,2.42,0.58,3.07,1.46v-4.45h2.41v12.53h-2.41v-1.39c-0.56,0.86-1.61,1.54-3.08,1.54
			c-2.39,0-4.29-1.95-4.29-4.88S545.05,198.65,547.45,198.65z M548.04,200.73c-1.27,0-2.47,0.95-2.47,2.73s1.2,2.79,2.47,2.79
			c1.3,0,2.49-0.98,2.49-2.76C550.53,201.71,549.35,200.73,548.04,200.73z"/>
		<path class="st7" d="M564.1,208.18h-2.39V207c-0.59,0.8-1.63,1.3-2.79,1.3c-2.18,0-3.76-1.42-3.76-4v-5.5h2.37v5.17
			c0,1.51,0.83,2.32,2.08,2.32c1.29,0,2.1-0.81,2.1-2.32v-5.17h2.39V208.18z"/>
		<path class="st7" d="M570.47,198.65c2.34,0,3.91,1.22,4.42,3.32h-2.56c-0.27-0.8-0.9-1.3-1.88-1.3c-1.32,0-2.2,1-2.2,2.83
			c0,1.83,0.88,2.81,2.2,2.81c0.98,0,1.59-0.44,1.88-1.29h2.56c-0.51,2-2.08,3.32-4.42,3.32c-2.71,0-4.64-1.9-4.64-4.84
			C565.83,200.54,567.76,198.65,570.47,198.65z"/>
		<path class="st7" d="M577.01,200.75h-1.12v-1.95h1.12v-2.32h2.39v2.32h2.1v1.95h-2.1v4.54c0,0.63,0.25,0.9,1,0.9h1.1v2h-1.49
			c-1.79,0-3-0.76-3-2.91V200.75z"/>
		<path class="st7" d="M582.95,196.29c0-0.78,0.61-1.39,1.46-1.39c0.83,0,1.46,0.61,1.46,1.39c0,0.78-0.63,1.39-1.46,1.39
			C583.56,197.68,582.95,197.07,582.95,196.29z M583.21,198.8h2.37v9.38h-2.37V198.8z"/>
		<path class="st7" d="M592.08,208.34c-2.71,0-4.76-1.9-4.76-4.84c0-2.96,2.12-4.84,4.83-4.84s4.83,1.88,4.83,4.84
			C596.98,206.44,594.81,208.34,592.08,208.34z M592.08,206.27c1.25,0,2.46-0.91,2.46-2.78c0-1.88-1.17-2.78-2.42-2.78
			s-2.39,0.9-2.39,2.78C589.73,205.35,590.81,206.27,592.08,206.27z"/>
		<path class="st7" d="M605.3,203c0-1.51-0.83-2.32-2.08-2.32c-1.29,0-2.12,0.81-2.12,2.32v5.18h-2.37v-9.38h2.37v1.17
			c0.61-0.8,1.63-1.3,2.83-1.3c2.19,0,3.74,1.42,3.74,4.01v5.5h-2.37V203z"/>
	</g>
	<g>
		<path class="st15" d="M429.37,390.1c-2.46,0-4.35-1.29-4.39-3.52h2.54c0.07,0.95,0.69,1.58,1.8,1.58c1.12,0,1.78-0.59,1.78-1.44
			c0-2.56-6.1-1.02-6.08-5.3c0-2.13,1.73-3.42,4.17-3.42c2.42,0,4.08,1.24,4.23,3.37h-2.61c-0.05-0.78-0.68-1.39-1.69-1.41
			c-0.93-0.03-1.63,0.42-1.63,1.39c0,2.37,6.06,1.05,6.06,5.22C433.55,388.43,432.06,390.1,429.37,390.1z"/>
		<path class="st15" d="M439.77,390.14c-2.71,0-4.76-1.9-4.76-4.84c0-2.96,2.12-4.84,4.83-4.84s4.83,1.88,4.83,4.84
			C444.66,388.24,442.49,390.14,439.77,390.14z M439.77,388.07c1.25,0,2.46-0.91,2.46-2.78c0-1.88-1.17-2.78-2.42-2.78
			s-2.39,0.9-2.39,2.78C437.41,387.16,438.5,388.07,439.77,388.07z"/>
		<path class="st15" d="M455.26,389.98h-2.39v-1.19c-0.59,0.8-1.63,1.3-2.79,1.3c-2.18,0-3.76-1.42-3.76-4v-5.5h2.37v5.17
			c0,1.51,0.83,2.32,2.08,2.32c1.29,0,2.1-0.81,2.1-2.32v-5.17h2.39V389.98z"/>
		<path class="st15" d="M459.97,389.98h-2.37v-9.38h2.37v1.46c0.59-0.97,1.58-1.59,2.88-1.59v2.49h-0.63
			c-1.41,0-2.25,0.54-2.25,2.35V389.98z"/>
		<path class="st15" d="M468.48,380.45c2.34,0,3.91,1.22,4.42,3.32h-2.56c-0.27-0.8-0.9-1.3-1.88-1.3c-1.32,0-2.2,1-2.2,2.83
			c0,1.83,0.88,2.81,2.2,2.81c0.98,0,1.59-0.44,1.88-1.29h2.56c-0.51,2-2.08,3.32-4.42,3.32c-2.71,0-4.64-1.9-4.64-4.84
			C463.83,382.35,465.77,380.45,468.48,380.45z"/>
		<path class="st15" d="M474.39,378.09c0-0.78,0.61-1.39,1.46-1.39c0.83,0,1.46,0.61,1.46,1.39c0,0.78-0.63,1.39-1.46,1.39
			C475,379.48,474.39,378.87,474.39,378.09z M474.64,380.6h2.37v9.38h-2.37V380.6z"/>
		<path class="st15" d="M485.92,384.8c0-1.51-0.83-2.32-2.08-2.32c-1.29,0-2.12,0.81-2.12,2.32v5.18h-2.37v-9.38h2.37v1.17
			c0.61-0.8,1.63-1.3,2.83-1.3c2.19,0,3.74,1.42,3.74,4.01v5.5h-2.37V384.8z"/>
		<path class="st15" d="M494.22,380.45c1.47,0,2.54,0.68,3.1,1.49v-1.34h2.39v9.45c0,2.54-1.56,4.56-4.64,4.56
			c-2.64,0-4.49-1.32-4.73-3.47h2.35c0.24,0.85,1.12,1.41,2.3,1.41c1.3,0,2.32-0.75,2.32-2.49v-1.46c-0.56,0.81-1.63,1.54-3.1,1.54
			c-2.39,0-4.29-1.95-4.29-4.88S491.83,380.45,494.22,380.45z M494.83,382.53c-1.27,0-2.47,0.95-2.47,2.73s1.2,2.79,2.47,2.79
			c1.3,0,2.49-0.98,2.49-2.76C497.32,383.51,496.14,382.53,494.83,382.53z"/>
	</g>
	<g>
		<g>
			<path class="st7" d="M588.45,160.67h-3.27c-2.09,0-3.78-1.7-3.78-3.78v-8.04c0-0.88-0.52-1.67-1.3-2.03v7.25
				c0,1.38-1.13,2.51-2.51,2.51h-0.15c-1.38,0-2.51-1.13-2.51-2.51v-16.77c0-1.38,1.13-2.51,2.51-2.51h0.15
				c1.38,0,2.51,1.13,2.51,2.51v4.67c0,0.51-0.42,0.93-0.93,0.93c-0.51,0-0.93-0.42-0.93-0.93v-4.67c0-0.35-0.3-0.65-0.65-0.65
				h-0.15c-0.36,0-0.65,0.29-0.65,0.65v16.77c0,0.36,0.29,0.65,0.65,0.65h0.15c0.35,0,0.65-0.3,0.65-0.65v-7.44
				c0-0.56,0.28-1.09,0.74-1.42c0.45-0.32,1.03-0.4,1.55-0.22c1.63,0.58,2.73,2.13,2.73,3.86v8.04c0,1.06,0.86,1.93,1.93,1.93h3.27
				c0.27,0,0.49-0.22,0.49-0.49s-0.22-0.49-0.49-0.49h-3.93c-0.51,0-0.93-0.42-0.93-0.93c0-0.51,0.42-0.93,0.93-0.93h3.93
				c1.3,0,2.35,1.05,2.35,2.35S589.75,160.67,588.45,160.67z"/>
		</g>
		<g>
			<path class="st7" d="M539.49,162.79c-0.51,0-0.93-0.42-0.93-0.93v-5.89c0-0.51,0.42-0.93,0.93-0.93c0.51,0,0.93,0.42,0.93,0.93
				v5.89C540.42,162.37,540,162.79,539.49,162.79z"/>
		</g>
		<g>
			<path class="st7" d="M542.05,162.79h-4.02c-0.51,0-0.93-0.42-0.93-0.93c0-0.51,0.42-0.93,0.93-0.93h4.02
				c0.51,0,0.93,0.42,0.93,0.93C542.98,162.37,542.57,162.79,542.05,162.79z"/>
		</g>
		<g>
			<path class="st7" d="M565.31,141.22c-0.51,0-0.93-0.42-0.93-0.93v-6.13c0-0.51,0.42-0.93,0.93-0.93c0.51,0,0.93,0.42,0.93,0.93
				v6.13C566.24,140.8,565.83,141.22,565.31,141.22z"/>
		</g>
		<g>
			<path class="st7" d="M581.19,175.81h-7.12c-0.32,0-0.61-0.16-0.78-0.43c-1.14-1.81-3.09-2.89-5.21-2.89h-21.7
				c-2.12,0-4.06,1.08-5.21,2.89c-0.17,0.27-0.47,0.43-0.78,0.43h-7.12c-0.51,0-0.93-0.42-0.93-0.93V167c0-1.74,1.42-3.16,3.16-3.16
				h22.29c0.32,0,0.6-0.2,0.71-0.5c1.09-3.1,1.83-6.33,2.21-9.59c0.08-0.73-0.13-1.45-0.59-2.02c-0.47-0.57-1.13-0.92-1.86-0.97
				l-9.84-0.8c-2.68-0.22-5.2,1.49-5.98,4.07l-0.48,1.58c-0.24,0.77-0.94,1.29-1.75,1.29h-1.28c-1.01,0-1.83-0.82-1.83-1.83v-16.05
				c0-1.01,0.82-1.83,1.83-1.83h1.52c0.67,0,1.29,0.37,1.61,0.96l0.53,0.98c0.87,1.62,2.55,2.63,4.39,2.63
				c3.76,0,7.55-0.36,11.24-1.07l6.91-1.32c2.06-0.39,4.17,0.15,5.79,1.48c1.62,1.34,2.54,3.31,2.54,5.41
				c0,5.12,0.28,10.3,0.83,15.39c0.05,0.51-0.31,0.97-0.82,1.02c-0.51,0.06-0.97-0.31-1.02-0.82c-0.56-5.16-0.84-10.4-0.84-15.59
				c0-1.54-0.68-2.99-1.87-3.97c-1.19-0.98-2.74-1.38-4.26-1.09l-6.91,1.32c-3.81,0.73-7.71,1.1-11.59,1.1
				c-2.52,0-4.83-1.38-6.03-3.61l-0.52-0.97h-1.47v15.98h1.23l0.47-1.55c1.03-3.4,4.36-5.67,7.91-5.38l9.84,0.8
				c1.24,0.1,2.36,0.69,3.15,1.65c0.79,0.96,1.15,2.17,1,3.41c-0.39,3.4-1.17,6.76-2.3,9.99c-0.37,1.04-1.36,1.74-2.46,1.74h-22.29
				c-0.72,0-1.31,0.59-1.31,1.31v6.95h5.7c1.51-2.09,3.9-3.32,6.48-3.32h21.7c2.59,0,4.97,1.23,6.48,3.32h5.7V167
				c0-0.72-0.59-1.31-1.31-1.31h-16.35c-0.51,0-0.93-0.42-0.93-0.93c0-0.51,0.42-0.93,0.93-0.93h16.35c1.74,0,3.16,1.42,3.16,3.16
				v7.88C582.12,175.39,581.71,175.81,581.19,175.81z"/>
		</g>
		<g>
			<path class="st7" d="M566.17,145.18c-0.83,0-1.51,0.68-1.51,1.51c0,0.83,0.68,1.51,1.51,1.51c0.83,0,1.51-0.68,1.51-1.51
				C567.68,145.85,567.01,145.18,566.17,145.18z"/>
		</g>
	</g>
	<g>
		<g>
			<path class="st15" d="M462.1,323.37c-2.7,0-4.99-2.63-4.99-5.73c0-3.01,2.24-5.46,4.99-5.46s4.99,2.45,4.99,5.46
				C467.09,320.74,464.8,323.37,462.1,323.37z M462.1,313.74c-1.89,0-3.42,1.75-3.42,3.89c0,2.22,1.6,4.17,3.42,4.17
				c1.82,0,3.42-1.95,3.42-4.17C465.52,315.49,463.99,313.74,462.1,313.74z"/>
		</g>
		<g>
			<path class="st15" d="M469.35,337.22h-14.51c-1.14,0-2.06-0.93-2.06-2.06v-1.75c0-5.02,4.08-9.1,9.1-9.1h0.43
				c5.02,0,9.1,4.08,9.1,9.1v1.75C471.41,336.3,470.49,337.22,469.35,337.22z M461.88,325.88c-4.16,0-7.54,3.38-7.54,7.54v1.75
				c0,0.27,0.22,0.5,0.5,0.5h14.51c0.27,0,0.5-0.22,0.5-0.5v-1.75c0-4.16-3.38-7.54-7.54-7.54H461.88z"/>
		</g>
		<g>
			<path class="st15" d="M466.66,337.22c-0.43,0-0.78-0.35-0.78-0.78v-3.46c0-0.43,0.35-0.78,0.78-0.78c0.43,0,0.78,0.35,0.78,0.78
				v3.46C467.44,336.87,467.09,337.22,466.66,337.22z"/>
		</g>
		<g>
			<path class="st15" d="M457.54,337.22c-0.43,0-0.78-0.35-0.78-0.78v-3.46c0-0.43,0.35-0.78,0.78-0.78s0.78,0.35,0.78,0.78v3.46
				C458.32,336.87,457.97,337.22,457.54,337.22z"/>
		</g>
		<g>
			<path class="st15" d="M465.11,360.4h-6.02c-2.01,0-3.64-1.63-3.64-3.64v-2.94c0-2.01,1.63-3.64,3.64-3.64h6.02
				c2.01,0,3.64,1.63,3.64,3.64v2.94C468.75,358.76,467.12,360.4,465.11,360.4z M459.08,351.75c-1.14,0-2.08,0.93-2.08,2.08v2.94
				c0,1.14,0.93,2.08,2.08,2.08h6.02c1.14,0,2.08-0.93,2.08-2.08v-2.94c0-1.14-0.93-2.08-2.08-2.08H459.08z"/>
		</g>
		<g>
			<path class="st15" d="M445.95,360.4h-6.02c-2.01,0-3.64-1.63-3.64-3.64v-2.94c0-2.01,1.63-3.64,3.64-3.64h6.02
				c2.01,0,3.64,1.63,3.64,3.64v2.94C449.59,358.76,447.96,360.4,445.95,360.4z M439.93,351.75c-1.14,0-2.08,0.93-2.08,2.08v2.94
				c0,1.14,0.93,2.08,2.08,2.08h6.02c1.14,0,2.08-0.93,2.08-2.08v-2.94c0-1.14-0.93-2.08-2.08-2.08H439.93z"/>
		</g>
		<g>
			<path class="st15" d="M484.26,360.4h-6.02c-2.01,0-3.64-1.63-3.64-3.64v-2.94c0-2.01,1.63-3.64,3.64-3.64h6.02
				c2.01,0,3.64,1.63,3.64,3.64v2.94C487.9,358.76,486.27,360.4,484.26,360.4z M478.24,351.75c-1.14,0-2.08,0.93-2.08,2.08v2.94
				c0,1.14,0.93,2.08,2.08,2.08h6.02c1.14,0,2.08-0.93,2.08-2.08v-2.94c0-1.14-0.93-2.08-2.08-2.08H478.24z"/>
		</g>
		<g>
			<path class="st15" d="M481.23,348.66c-0.43,0-0.78-0.35-0.78-0.78v-1.91c0-0.9-0.73-1.64-1.64-1.64h-33.45
				c-0.9,0-1.64,0.73-1.64,1.64v1.91c0,0.43-0.35,0.78-0.78,0.78c-0.43,0-0.78-0.35-0.78-0.78v-1.91c0-1.77,1.44-3.2,3.2-3.2h33.45
				c1.77,0,3.2,1.44,3.2,3.2v1.91C482.02,348.31,481.67,348.66,481.23,348.66z"/>
		</g>
		<g>
			<path class="st15" d="M462.09,348.66c-0.43,0-0.78-0.35-0.78-0.78v-8.34c0-0.43,0.35-0.78,0.78-0.78s0.78,0.35,0.78,0.78v8.34
				C462.87,348.31,462.52,348.66,462.09,348.66z"/>
		</g>
	</g>
</g>
<g>
	<path class="st6" d="M665.98,434.13c-3.22,0-5.5-1.79-5.54-4.44h2.23c0.14,1.33,1.08,2.67,3.31,2.67c2.02,0,3.22-1.15,3.22-2.67
		c0-4.32-8.67-1.56-8.67-7.52c0-2.64,2.14-4.44,5.31-4.44c3.06,0,5.06,1.68,5.31,4.12h-2.3c-0.14-1.08-1.15-2.3-3.1-2.32
		c-1.72-0.05-3.08,0.85-3.08,2.58c0,4.14,8.65,1.56,8.65,7.5C671.31,431.87,669.45,434.13,665.98,434.13z"/>
	<path class="st6" d="M685.57,433.96h-2.09v-1.86c-0.8,1.31-2.35,2.05-4.02,2.05c-2.9,0-5.17-1.79-5.17-5.4v-7.38h2.07v7.11
		c0,2.55,1.4,3.86,3.52,3.86c2.16,0,3.61-1.33,3.61-4.05v-6.92h2.09V433.96z"/>
	<path class="st6" d="M693.56,434.17c-2.94,0-5.01-1.61-5.15-3.91h2.16c0.12,1.22,1.2,2.14,2.97,2.14c1.66,0,2.58-0.83,2.58-1.86
		c0-2.81-7.45-1.17-7.45-5.86c0-1.93,1.82-3.52,4.62-3.52c2.78,0,4.62,1.49,4.76,3.96h-2.09c-0.09-1.26-1.06-2.18-2.74-2.18
		c-1.54,0-2.46,0.74-2.46,1.75c0,2.99,7.31,1.36,7.41,5.86C698.16,432.61,696.35,434.17,693.56,434.17z"/>
	<path class="st6" d="M701.56,423.09h-1.63v-1.72h1.63v-3.17h2.09v3.17h3.29v1.72h-3.29v7.43c0,1.24,0.46,1.68,1.75,1.68h1.54v1.77
		h-1.89c-2.23,0-3.5-0.92-3.5-3.45V423.09z"/>
	<path class="st6" d="M714.67,421.16c2.34,0,3.96,1.2,4.69,2.51v-2.3h2.12v12.6h-2.12v-2.35c-0.76,1.36-2.39,2.55-4.71,2.55
		c-3.36,0-5.96-2.64-5.96-6.55C708.69,423.69,711.29,421.16,714.67,421.16z M715.08,422.97c-2.3,0-4.25,1.68-4.25,4.65
		s1.96,4.71,4.25,4.71c2.3,0,4.28-1.72,4.28-4.69C719.36,424.72,717.38,422.97,715.08,422.97z"/>
	<path class="st6" d="M724.67,417.89c0-0.8,0.62-1.43,1.43-1.43c0.76,0,1.38,0.62,1.38,1.43c0,0.81-0.62,1.43-1.38,1.43
		C725.29,419.32,724.67,418.7,724.67,417.89z M725.01,421.36h2.09v12.6h-2.09V421.36z"/>
	<path class="st6" d="M739.89,426.84c0-2.58-1.4-3.89-3.52-3.89c-2.14,0-3.61,1.33-3.61,4.05v6.97h-2.09v-12.6h2.09v1.79
		c0.83-1.31,2.35-2.02,4.05-2.02c2.92,0,5.15,1.79,5.15,5.4v7.43h-2.07V426.84z"/>
	<path class="st6" d="M750.58,421.16c2.34,0,3.96,1.2,4.69,2.51v-2.3h2.12v12.6h-2.12v-2.35c-0.76,1.36-2.39,2.55-4.71,2.55
		c-3.36,0-5.96-2.64-5.96-6.55C744.6,423.69,747.2,421.16,750.58,421.16z M750.99,422.97c-2.3,0-4.25,1.68-4.25,4.65
		s1.96,4.71,4.25,4.71c2.3,0,4.28-1.72,4.28-4.69C755.27,424.72,753.29,422.97,750.99,422.97z"/>
	<path class="st6" d="M767.73,421.16c3.4,0,5.98,2.53,5.98,6.46c0,3.91-2.6,6.55-5.98,6.55c-2.3,0-3.93-1.15-4.71-2.53v2.32h-2.09
		v-17.02h2.09v6.76C763.82,422.31,765.5,421.16,767.73,421.16z M767.29,422.97c-2.28,0-4.28,1.75-4.28,4.67c0,2.97,2,4.69,4.28,4.69
		c2.32,0,4.28-1.75,4.28-4.71S769.61,422.97,767.29,422.97z"/>
	<path class="st6" d="M776.46,416.95h2.09v17.02h-2.09V416.95z"/>
	<path class="st6" d="M787.56,434.17c-3.59,0-6.23-2.53-6.23-6.53c0-3.98,2.55-6.48,6.23-6.48c3.66,0,6.05,2.58,6.05,6.02
		c0,0.46-0.02,0.83-0.07,1.26h-10.07c0.16,2.55,1.96,3.96,4.09,3.96c1.89,0,3.08-0.97,3.54-2.32h2.25
		C792.71,432.38,790.69,434.17,787.56,434.17z M783.49,426.74h7.96c0.02-2.46-1.82-3.82-3.98-3.82
		C785.43,422.93,783.72,424.28,783.49,426.74z"/>
	<path class="st17" d="M807.59,434.13c-3.22,0-5.5-1.79-5.54-4.44h2.23c0.14,1.33,1.08,2.67,3.31,2.67c2.02,0,3.22-1.15,3.22-2.67
		c0-4.32-8.67-1.56-8.67-7.52c0-2.64,2.14-4.44,5.31-4.44c3.06,0,5.06,1.68,5.31,4.12h-2.3c-0.14-1.08-1.15-2.3-3.1-2.32
		c-1.73-0.05-3.08,0.85-3.08,2.58c0,4.14,8.65,1.56,8.65,7.5C812.92,431.87,811.06,434.13,807.59,434.13z"/>
	<path class="st17" d="M827.17,433.96h-2.09v-1.86c-0.8,1.31-2.35,2.05-4.02,2.05c-2.9,0-5.17-1.79-5.17-5.4v-7.38h2.07v7.11
		c0,2.55,1.4,3.86,3.52,3.86c2.16,0,3.61-1.33,3.61-4.05v-6.92h2.09V433.96z"/>
	<path class="st17" d="M837.52,421.16c3.38,0,5.98,2.53,5.98,6.46c0,3.91-2.6,6.55-5.98,6.55c-2.3,0-3.93-1.24-4.71-2.53v8.3h-2.09
		v-18.58h2.09v2.32C833.56,422.35,835.22,421.16,837.52,421.16z M837.08,422.97c-2.28,0-4.28,1.75-4.28,4.67
		c0,2.97,2,4.69,4.28,4.69c2.32,0,4.28-1.75,4.28-4.71S839.4,422.97,837.08,422.97z"/>
	<path class="st17" d="M853.06,421.16c3.38,0,5.98,2.53,5.98,6.46c0,3.91-2.6,6.55-5.98,6.55c-2.3,0-3.93-1.24-4.71-2.53v8.3h-2.09
		v-18.58h2.09v2.32C849.1,422.35,850.76,421.16,853.06,421.16z M852.62,422.97c-2.28,0-4.28,1.75-4.28,4.67c0,2.97,2,4.69,4.28,4.69
		c2.32,0,4.28-1.75,4.28-4.71S854.94,422.97,852.62,422.97z"/>
	<path class="st17" d="M861.79,416.95h2.09v17.02h-2.09V416.95z"/>
	<path class="st17" d="M876.14,421.36h2.16l-7.59,18.53h-2.16l2.48-6.07l-5.08-12.46h2.32l3.96,10.21L876.14,421.36z"/>
	<path class="st17" d="M662.42,445.32c3.47,0,6.23,1.75,7.43,4.85h-2.51c-0.87-1.93-2.58-3.01-4.92-3.01
		c-3.36,0-5.86,2.44-5.86,6.37c0,3.91,2.51,6.35,5.86,6.35c2.35,0,4.05-1.08,4.92-2.99h2.51c-1.2,3.08-3.96,4.81-7.43,4.81
		c-4.48,0-8-3.36-8-8.16C654.41,448.72,657.93,445.32,662.42,445.32z"/>
	<path class="st17" d="M672.94,444.53h2.09v6.23c0.83-1.33,2.39-2.05,4.16-2.05c2.81,0,5.04,1.79,5.04,5.4v7.43h-2.07v-7.13
		c0-2.58-1.4-3.89-3.52-3.89c-2.14,0-3.61,1.33-3.61,4.05v6.97h-2.09V444.53z"/>
	<path class="st17" d="M692.85,448.74c2.34,0,3.96,1.2,4.69,2.51v-2.3h2.12v12.6h-2.12v-2.35c-0.76,1.36-2.39,2.55-4.71,2.55
		c-3.36,0-5.96-2.64-5.96-6.55C686.87,451.27,689.47,448.74,692.85,448.74z M693.27,450.56c-2.3,0-4.25,1.68-4.25,4.65
		s1.96,4.71,4.25,4.71c2.3,0,4.28-1.72,4.28-4.69C697.54,452.31,695.56,450.56,693.27,450.56z"/>
	<path class="st17" d="M702.85,445.48c0-0.8,0.62-1.43,1.43-1.43c0.76,0,1.38,0.62,1.38,1.43c0,0.81-0.62,1.43-1.38,1.43
		C703.47,446.9,702.85,446.28,702.85,445.48z M703.19,448.95h2.09v12.6h-2.09V448.95z"/>
	<path class="st17" d="M718.07,454.42c0-2.58-1.4-3.89-3.52-3.89c-2.14,0-3.61,1.33-3.61,4.05v6.97h-2.09v-12.6h2.09v1.79
		c0.83-1.31,2.35-2.02,4.05-2.02c2.92,0,5.15,1.79,5.15,5.4v7.43h-2.07V454.42z"/>
	<path class="st17" d="M729.7,445.64h2.25l5.89,13.15l5.89-13.15h2.23v15.91h-2.09v-11.87l-5.29,11.87h-1.47l-5.31-11.89v11.89
		h-2.09V445.64z"/>
	<path class="st17" d="M754.69,448.74c2.34,0,3.96,1.2,4.69,2.51v-2.3h2.12v12.6h-2.12v-2.35c-0.76,1.36-2.39,2.55-4.71,2.55
		c-3.36,0-5.96-2.64-5.96-6.55C748.71,451.27,751.31,448.74,754.69,448.74z M755.1,450.56c-2.3,0-4.25,1.68-4.25,4.65
		s1.96,4.71,4.25,4.71c2.3,0,4.28-1.72,4.28-4.69C759.38,452.31,757.4,450.56,755.1,450.56z"/>
	<path class="st17" d="M774.25,454.42c0-2.58-1.4-3.89-3.52-3.89c-2.14,0-3.61,1.33-3.61,4.05v6.97h-2.09v-12.6h2.09v1.79
		c0.83-1.31,2.35-2.02,4.05-2.02c2.92,0,5.15,1.79,5.15,5.4v7.43h-2.07V454.42z"/>
	<path class="st17" d="M784.94,448.74c2.34,0,3.96,1.2,4.69,2.51v-2.3h2.12v12.6h-2.12v-2.35c-0.76,1.36-2.39,2.55-4.71,2.55
		c-3.36,0-5.96-2.64-5.96-6.55C778.97,451.27,781.56,448.74,784.94,448.74z M785.36,450.56c-2.3,0-4.25,1.68-4.25,4.65
		s1.96,4.71,4.25,4.71c2.3,0,4.28-1.72,4.28-4.69C789.63,452.31,787.66,450.56,785.36,450.56z"/>
	<path class="st17" d="M800.48,448.74c2.3,0,3.96,1.15,4.69,2.51v-2.3h2.12v12.88c0,3.47-2.32,5.93-6.03,5.93
		c-3.31,0-5.68-1.68-6.09-4.37h2.07c0.46,1.52,1.95,2.55,4.02,2.55c2.23,0,3.91-1.43,3.91-4.12v-2.64
		c-0.76,1.36-2.39,2.58-4.69,2.58c-3.38,0-5.98-2.64-5.98-6.55C794.51,451.27,797.1,448.74,800.48,448.74z M800.9,450.56
		c-2.3,0-4.25,1.68-4.25,4.65s1.96,4.71,4.25,4.71c2.3,0,4.28-1.72,4.28-4.69C805.17,452.31,803.2,450.56,800.9,450.56z"/>
	<path class="st17" d="M816.28,461.76c-3.59,0-6.23-2.53-6.23-6.53c0-3.98,2.55-6.48,6.23-6.48c3.66,0,6.05,2.58,6.05,6.02
		c0,0.46-0.02,0.83-0.07,1.27h-10.07c0.16,2.55,1.96,3.96,4.09,3.96c1.89,0,3.08-0.97,3.54-2.32h2.25
		C821.43,459.96,819.4,461.76,816.28,461.76z M812.21,454.33h7.96c0.02-2.46-1.82-3.82-3.98-3.82
		C814.14,450.51,812.44,451.87,812.21,454.33z"/>
	<path class="st17" d="M843.27,454.42c0-2.58-1.38-3.89-3.45-3.89c-2.12,0-3.56,1.36-3.56,4.07v6.94h-2.07v-7.13
		c0-2.58-1.38-3.89-3.45-3.89c-2.12,0-3.56,1.36-3.56,4.07v6.94h-2.09v-12.6h2.09v1.82c0.83-1.33,2.32-2.05,3.98-2.05
		c2.07,0,3.79,0.92,4.62,2.81c0.74-1.82,2.53-2.81,4.46-2.81c2.87,0,5.1,1.79,5.1,5.4v7.43h-2.07V454.42z"/>
	<path class="st17" d="M854.21,461.76c-3.59,0-6.23-2.53-6.23-6.53c0-3.98,2.55-6.48,6.23-6.48c3.66,0,6.05,2.58,6.05,6.02
		c0,0.46-0.02,0.83-0.07,1.27h-10.07c0.16,2.55,1.96,3.96,4.09,3.96c1.89,0,3.08-0.97,3.54-2.32H860
		C859.36,459.96,857.33,461.76,854.21,461.76z M850.14,454.33h7.96c0.02-2.46-1.82-3.82-3.98-3.82
		C852.07,450.51,850.37,451.87,850.14,454.33z"/>
	<path class="st17" d="M872.23,454.42c0-2.58-1.4-3.89-3.52-3.89c-2.14,0-3.61,1.33-3.61,4.05v6.97h-2.09v-12.6h2.09v1.79
		c0.83-1.31,2.35-2.02,4.05-2.02c2.92,0,5.15,1.79,5.15,5.4v7.43h-2.07V454.42z"/>
	<path class="st17" d="M878.18,450.67h-1.63v-1.72h1.63v-3.17h2.09v3.17h3.29v1.72h-3.29v7.43c0,1.24,0.46,1.68,1.75,1.68h1.54v1.77
		h-1.89c-2.23,0-3.5-0.92-3.5-3.45V450.67z"/>
</g>
<g>
	<g>
		<path class="st6" d="M796.53,353.56h-12.48v-10.83h12.48V353.56z M786.64,350.97h7.3v-5.65h-7.3V350.97z"/>
	</g>
	<g>
		<rect x="793.59" y="369.1" class="st6" width="8.24" height="2.59"/>
	</g>
	<g>
		<path class="st6" d="M808.07,378.28h-35.54v-35.54h35.54V378.28z M775.11,375.69h30.36v-30.36h-30.36V375.69z"/>
	</g>
	<g>
		<path class="st8" d="M776.76,314.37h-2.59c0-6.55-5.33-11.89-11.89-11.89v-2.59C770.26,299.89,776.76,306.39,776.76,314.37z"/>
	</g>
	<g>
		<path class="st8" d="M750.39,314.37h-2.59c0-7.98,6.49-14.48,14.48-14.48v2.59C755.72,302.48,750.39,307.81,750.39,314.37z"/>
	</g>
	<g>
		<rect x="747.8" y="314.37" class="st8" width="2.59" height="4.94"/>
	</g>
	<g>
		<path class="st8" d="M762.28,333.79c-7.98,0-14.48-6.49-14.48-14.48h2.59c0,6.55,5.33,11.89,11.89,11.89V333.79z"/>
	</g>
	<g>
		<path class="st8" d="M762.28,333.79v-2.59c5.99,0,11.06-4.47,11.8-10.4l2.57,0.32C775.75,328.34,769.57,333.79,762.28,333.79z"/>
	</g>
	<g>
		<rect x="742.86" y="362.16" class="st8" width="2.59" height="16.48"/>
	</g>
	<g>
		<rect x="749.1" y="314.72" class="st8" width="36.25" height="2.59"/>
	</g>
	<g>
		<path class="st8" d="M732.26,378.63h-2.59v-24.45c0-6.79,4.81-12.74,11.44-14.16c9.15-1.95,18.51-2.63,27.84-2l-0.17,2.58
			c-9.09-0.61-18.22,0.05-27.12,1.95c-5.54,1.18-9.4,5.96-9.4,11.63V378.63z"/>
	</g>
</g>
</svg>
